<?xml version="1.0" standalone="no"?>
<!DOCTYPE svg PUBLIC "-//W3C//DTD SVG 1.1//EN" "http://www.w3.org/Graphics/SVG/1.1/DTD/svg11.dtd" >
<svg xmlns="http://www.w3.org/2000/svg" xmlns:xlink="http://www.w3.org/1999/xlink" version="1.1">
<metadata>
Created by FontForge 20170731 at Fri Jan  1 02:30:17 1904
 By Aleksey,,,
Copyright (C) 1990 ParaGraph JV.
</metadata>
<defs>
<font id="Times" horiz-adv-x="3097" >
  <font-face 
    font-family="Times"
    font-weight="400"
    font-stretch="normal"
    units-per-em="4096"
    panose-1="2 11 114 0 0 0 0 0 0 0"
    ascent="3276"
    descent="-820"
    x-height="2081"
    cap-height="3039"
    bbox="-373 -918 5067 3863"
    underline-thickness="56"
    underline-position="-308"
    unicode-range="U+0020-2022"
  />
<missing-glyph horiz-adv-x="3072" 
d="M512 0v2560h2048v-2560h-2048zM2496 64v2432h-1920v-2432h1920z" />
    <glyph glyph-name=".notdef" horiz-adv-x="3072" 
d="M512 0v2560h2048v-2560h-2048zM2496 64v2432h-1920v-2432h1920z" />
    <glyph glyph-name=".null" horiz-adv-x="0" 
 />
    <glyph glyph-name="nonmarkingreturn" horiz-adv-x="0" 
 />
    <glyph glyph-name="space" unicode=" " horiz-adv-x="1438" 
 />
    <glyph glyph-name="exclam" unicode="!" horiz-adv-x="1065" 
d="M500 893l-181 1634q-16 156 -16 242q0 311 229 311q76 0 157 -61t81 -254q0 -26 -3.5 -65t-10 -86t-11.5 -87l-176 -1634h-69zM287 205q0 113 79.5 181.5t165.5 68.5t166 -68.5t80 -181.5q0 -105 -71.5 -175.5t-174.5 -70.5q-102 0 -173.5 71.5t-71.5 174.5z" />
    <glyph glyph-name="quotedbl" unicode="&#x22;" horiz-adv-x="1593" 
d="M344 2146l-115 553q-24 116 -24 197q0 229 217 229q221 0 221 -233q0 -74 -29 -193l-114 -553h-156zM1090 2146l-115 553q-25 121 -25 197q0 229 217 229q222 0 222 -233q0 -59 -29 -193l-115 -553h-155z" />
    <glyph glyph-name="numbersign" unicode="#" horiz-adv-x="2675" 
d="M1626 193h-188l123 684h-676l-123 -684h-189l123 684h-467l41 229h467l152 848h-467l41 229h467l123 684h188l-123 -684h672l123 684h188l-119 -684h463l-41 -229h-462l-152 -848h463l-41 -229h-463zM1602 1106l147 848h-672l-151 -848h676z" />
    <glyph glyph-name="dollar" unicode="$" horiz-adv-x="2286" 
d="M319 164v622h46q39 -223 192 -428t471 -243v1339q-713 381 -713 934q0 197 99 350.5t264 240t350 97.5v238h152v-238q419 -24 704 -217l25 -647h-66q-17 187 -101.5 352t-230.5 266.5t-331 102.5v-1110q418 -256 633 -483t215 -566q0 -226 -117 -407t-311 -287t-420 -121
v-278h-152v278q-421 31 -709 205zM1180 1360v-1245q189 22 354.5 147t165.5 402q0 113 -39.5 216t-155 224t-325.5 256zM1028 1917v1016q-160 -20 -270.5 -134.5t-110.5 -320.5q0 -330 381 -561z" />
    <glyph glyph-name="percent" unicode="%" horiz-adv-x="3682" 
d="M3068 3236l123 -90l-2650 -3396l-123 86l2183 2802q-206 -111 -475 -111q-168 0 -295 78q4 -25 4 -82q0 -240 -122.5 -493.5t-326.5 -418.5t-432 -165q-235 0 -371 97t-187.5 230t-51.5 259q0 232 108 496.5t330.5 449t540.5 184.5q316 0 467 -278q98 -205 360 -205
q520 0 918 557zM1659 2707q-139 73 -139 222q-65 37 -152 37q-182 0 -337 -164t-245 -404.5t-90 -443.5q0 -195 88.5 -263.5t194.5 -68.5q173 0 333.5 143t259.5 366.5t99 440.5q0 67 -12 135zM2462 -82q-281 0 -446 162.5t-165 423.5q0 187 63 385t187.5 371.5t302.5 277.5
t398 104q254 0 395 -147.5t141 -437.5q0 -271 -119.5 -537t-321.5 -434t-435 -168zM2486 94q200 0 358 160.5t246 389t88 409.5q0 385 -303 385q-195 0 -348.5 -174t-238 -416.5t-84.5 -421.5q0 -195 88.5 -263.5t193.5 -68.5z" />
    <glyph glyph-name="ampersand" unicode="&#x26;" horiz-adv-x="3391" 
d="M2200 1942h876v-37q-147 -39 -244 -120t-160 -185t-161 -302q-163 -325 -365 -593q319 -414 660 -414q142 0 261.5 88t151.5 223h58q-80 -310 -226.5 -476.5t-404.5 -166.5q-207 0 -411 135t-343 316q-180 -186 -352 -284.5t-317 -130.5t-297 -32q-237 0 -407.5 95
t-258.5 258t-88 364q0 309 228 561t677 496q-155 358 -155 577q0 207 70 380.5t218.5 279.5t370.5 106q188 0 321 -77t201 -204.5t68 -279.5q0 -435 -680 -754q56 -129 128.5 -269t183 -315t245.5 -350q144 190 248 421t104 390q0 241 -200 263v37zM1786 537
q-146 180 -258 343.5t-197 319.5t-188 377q-261 -142 -399 -307t-138 -385q0 -167 58 -306t164.5 -227.5t248.5 -109.5h164q285 35 545 295zM1425 1921q191 75 335.5 229.5t144.5 401.5q0 157 -76.5 271t-218.5 114q-179 0 -257.5 -129t-78.5 -273q0 -266 151 -614z" />
    <glyph glyph-name="quotesingle" unicode="'" horiz-adv-x="848" 
d="M344 2146l-115 553q-24 116 -24 197q0 229 217 229q221 0 221 -233q0 -74 -29 -193l-114 -553h-156z" />
    <glyph glyph-name="parenleft" unicode="(" horiz-adv-x="1606" 
d="M1376 3101l54 -62q-220 -199 -371 -454t-234.5 -613.5t-83.5 -836.5q0 -476 84.5 -838.5t236.5 -618t368 -452.5l-54 -62q-220 159 -412 360t-346.5 453t-242.5 547t-88 611q0 590 300 1103t789 863z" />
    <glyph glyph-name="parenright" unicode=")" horiz-adv-x="1606" 
d="M229 -836l-53 62q203 184 354 429.5t242.5 614.5t91.5 865q0 379 -52.5 678.5t-146 527t-216.5 396t-273 302.5l53 62q490 -349 790 -862.5t300 -1103.5q0 -321 -88.5 -614.5t-242 -544t-346.5 -452.5t-413 -360z" />
    <glyph glyph-name="asterisk" unicode="*" horiz-adv-x="1937" 
d="M930 2408l-107 365q-16 66 -16 123q0 201 164 201q159 0 159 -201q0 -57 -16 -123l-106 -365l65 -41l262 275q94 94 176 111h78q57 -11 88 -47.5t31 -75.5q0 -177 -229 -234l-369 -90v-78l369 -90q118 -28 173.5 -93t55.5 -144q0 -94 -119 -123h-78q-93 18 -176 110
l-262 275l-65 -37l106 -365q16 -64 16 -127q0 -200 -159 -200q-164 0 -164 204q0 80 16 123l107 365l-66 37l-262 -275q-83 -92 -176 -110h-78q-119 29 -119 123q0 77 56.5 143t173.5 94l368 90v78l-368 90q-230 57 -230 234q0 39 31 75.5t88 47.5h78q82 -17 176 -111
l262 -275z" />
    <glyph glyph-name="plus" unicode="+" 
d="M1663 315h-229v1147h-1147v230h1147v1147h229v-1147h1147v-230h-1147v-1147z" />
    <glyph glyph-name="comma" unicode="," horiz-adv-x="1335" 
d="M365 -733l-21 78q181 54 284 149t139 194.5t36 184.5q0 60 -29 147q-69 -61 -164 -61q-119 0 -178 72.5t-59 173.5q0 112 84.5 181t201.5 69q151 0 241.5 -121t90.5 -334q0 -226 -102 -381t-243 -236t-281 -116z" />
    <glyph glyph-name="hyphen" unicode="-" horiz-adv-x="1835" 
d="M287 1204h1261v-286h-1261v286z" />
    <glyph glyph-name="period" unicode="." horiz-adv-x="1180" 
d="M344 205q0 113 80.5 181.5t165.5 68.5q86 0 166 -68.5t80 -181.5q0 -103 -72.5 -174.5t-173.5 -71.5t-173.5 71.5t-72.5 174.5z" />
    <glyph glyph-name="slash" unicode="/" horiz-adv-x="1864" 
d="M213 -864l-213 90l1647 3907l217 -90z" />
    <glyph glyph-name="zero" unicode="0" horiz-adv-x="2175" 
d="M1102 -41q-295 0 -509.5 213.5t-323.5 571.5t-109 776q0 413 110 772.5t321.5 573.5t498.5 214q285 0 495.5 -213.5t320 -572.5t109.5 -774q0 -255 -49.5 -527t-157.5 -507t-285.5 -381t-420.5 -146zM1090 98q117 0 207.5 70.5t155 232.5t98.5 437.5t34 681.5
q0 529 -60 846t-168.5 446t-266.5 129q-168 0 -282 -129t-174.5 -444.5t-60.5 -847.5q0 -531 60.5 -847t174.5 -445.5t282 -129.5z" />
    <glyph glyph-name="one" unicode="1" horiz-adv-x="2183" 
d="M545 2695l798 385v-2720q0 -131 72 -219t297 -88h74v-53h-1282v53h78q364 0 364 295v2134q0 221 -168 221q-65 0 -200 -73z" />
    <glyph glyph-name="two" unicode="2" horiz-adv-x="2179" 
d="M623 340h929q158 0 262 50.5t173 182.5l49 -20l-209 -553h-1684l545 606q68 76 230.5 259.5t288 369t211 407t85.5 451.5q0 185 -80.5 336.5t-222.5 237.5t-319 86q-188 0 -358.5 -126.5t-239.5 -369.5l-70 16q50 292 241.5 549.5t569.5 257.5q254 0 450.5 -108.5
t303 -302.5t106.5 -445q0 -271 -114 -526t-321 -506t-527 -561z" />
    <glyph glyph-name="three" unicode="3" horiz-adv-x="2179" 
d="M434 2408l-74 29q61 255 237.5 449t483.5 194q142 0 269.5 -44t224.5 -125.5t152 -196.5t55 -256q0 -372 -410 -689q262 -64 399.5 -291.5t137.5 -519.5q0 -193 -84.5 -374t-232.5 -322t-336.5 -220t-391.5 -79q-284 0 -443 62t-159 168q0 78 46 137t138 59
q45 0 80.5 -11t58 -24t49.5 -34t38 -29q23 -20 48 -40t65 -41.5t88.5 -35.5t109.5 -14q157 0 294.5 70.5t220.5 206.5t83 321q0 207 -91.5 385t-259.5 281.5t-386 103.5h-82v49q202 38 355 143t235 248.5t82 292.5q0 200 -115 350t-365 150q-205 0 -331 -109.5t-189 -243.5z
" />
    <glyph glyph-name="four" unicode="4" horiz-adv-x="2179" 
d="M115 819v357l1323 1904h229v-1945h397v-316h-397v-819h-377v819h-1175zM303 1135h987v1425z" />
    <glyph glyph-name="five" unicode="5" horiz-adv-x="2179" 
d="M356 1892l525 1147h1056l-168 -364h-901l-196 -434q311 -33 548 -141.5t390.5 -270t228 -359.5t74.5 -413q0 -306 -144 -556.5t-387 -394t-526 -143.5q-257 0 -435.5 47t-178.5 203q0 77 54.5 126.5t133.5 49.5q99 0 229 -98q153 -131 316 -131q180 0 326.5 94
t227.5 254.5t81 351.5q0 188 -84.5 367.5t-245 323.5t-395.5 235t-529 106z" />
    <glyph glyph-name="six" unicode="6" horiz-adv-x="2179" 
d="M1958 3228l16 -90q-187 -34 -378.5 -120t-378 -252.5t-333.5 -435t-220 -642.5q151 107 279 164t274 57q219 0 396.5 -107t279.5 -313t102 -485q0 -287 -111 -526t-315.5 -379t-470.5 -140q-258 0 -466 149.5t-328 447.5t-120 718q0 430 140.5 775.5t386 590t567 393
t680.5 195.5zM639 1528q-25 -135 -25 -410q0 -366 81 -589t203 -312.5t257 -89.5q195 0 323 155t128 468q0 296 -66.5 511t-187.5 329t-283 114q-113 0 -227 -47.5t-203 -128.5z" />
    <glyph glyph-name="seven" unicode="7" horiz-adv-x="2175" 
d="M1606 2650h-828q-106 0 -195 -21t-183 -103.5t-158 -244.5l-66 29l279 729h1544l-1065 -3039h-270z" />
    <glyph glyph-name="eight" unicode="8" horiz-adv-x="2175" 
d="M868 1524q-298 230 -423.5 419t-125.5 429q0 222 103.5 383t279.5 243t388 82q209 0 385 -85t278 -241.5t102 -357.5q0 -203 -123 -370t-446 -363q223 -191 347.5 -320t202 -287t77.5 -351q0 -213 -95.5 -382t-290 -266.5t-478.5 -97.5q-209 0 -390.5 84.5t-289 247.5
t-107.5 385t128.5 419t477.5 429zM1184 1745q385 233 385 676q0 296 -152 418t-327 122q-105 0 -206 -52t-167 -159t-66 -260q0 -140 67.5 -261t169 -220t296.5 -264zM963 1438q-390 -314 -390 -774q0 -268 154 -419t375 -151q190 0 336.5 115t146.5 348q0 153 -83 295.5
t-190 251.5t-349 334z" />
    <glyph glyph-name="nine" unicode="9" horiz-adv-x="2179" 
d="M221 -188l-16 90q208 39 406 135t377 265.5t318.5 434t209.5 615.5q-155 -110 -281 -166t-272 -56q-220 0 -397.5 107t-279.5 313t-102 486q0 285 108.5 524.5t312 379.5t476.5 140q292 0 499.5 -173t311 -473t103.5 -669q0 -429 -140 -772.5t-388 -591t-566 -394
t-680 -195.5zM1540 1511q25 162 25 410q0 583 -173 787t-368 204q-184 0 -317.5 -139.5t-133.5 -482.5q0 -433 142 -694t395 -261q240 0 430 176z" />
    <glyph glyph-name="colon" unicode=":" horiz-adv-x="1180" 
d="M344 205q0 113 80.5 181.5t165.5 68.5q86 0 166 -68.5t80 -181.5q0 -103 -72.5 -174.5t-173.5 -71.5t-173.5 71.5t-72.5 174.5zM344 1909q0 102 70.5 173.5t175.5 71.5t175.5 -71.5t70.5 -173.5q0 -103 -72.5 -174.5t-173.5 -71.5t-173.5 71.5t-72.5 174.5z" />
    <glyph glyph-name="semicolon" unicode=";" horiz-adv-x="1335" 
d="M422 1909q0 102 70.5 173.5t175.5 71.5q103 0 174 -70t71 -175t-71.5 -175.5t-173.5 -70.5q-101 0 -173.5 71.5t-72.5 174.5zM365 -733l-21 78q179 50 319 182t140 346q0 75 -25 147q-69 -61 -168 -61q-118 0 -175.5 72t-57.5 174q0 126 89 188t193 62q146 0 239 -123
t93 -332q0 -230 -99.5 -383.5t-240 -234t-286.5 -115.5z" />
    <glyph glyph-name="less" unicode="&#x3c;" horiz-adv-x="2753" 
d="M229 1581l2093 1323l103 -164l-1811 -1159l1811 -1159l-103 -164z" />
    <glyph glyph-name="equal" unicode="=" 
d="M229 1090v229h2638v-229h-2638zM229 1835v229h2638v-229h-2638z" />
    <glyph glyph-name="greater" unicode="&#x3e;" horiz-adv-x="2753" 
d="M2523 1581l-2093 -1323l-102 164l1810 1159l-1810 1159l102 164z" />
    <glyph glyph-name="question" unicode="?" horiz-adv-x="1942" 
d="M905 823h-69q0 270 55 436t166 363q132 230 184.5 367t52.5 333q0 203 -53 343t-147 212t-217 72q-90 0 -173 -39t-133.5 -103.5t-50.5 -140.5q0 -75 58 -147q81 -111 81 -197q0 -73 -57.5 -124.5t-130.5 -51.5q-105 0 -173.5 98.5t-68.5 254.5q0 136 92 270.5t268 222.5
t410 88q243 0 405 -112.5t235 -283.5t73 -345q0 -215 -100 -376t-301 -370q-147 -153 -222 -246t-129.5 -225.5t-54.5 -298.5zM639 205q0 113 79.5 181.5t166.5 68.5q85 0 165 -68.5t80 -181.5q0 -105 -71.5 -175.5t-173.5 -70.5q-101 0 -173.5 71.5t-72.5 174.5z" />
    <glyph glyph-name="at" unicode="@" horiz-adv-x="3539" 
d="M2359 2367h320l-340 -1183q-25 -85 -25 -156q0 -213 221 -213q130 0 242 75.5t193 206t124.5 294.5t43.5 342q0 362 -173.5 629t-468.5 406.5t-645 139.5q-301 0 -558 -108.5t-446 -306.5t-292.5 -467.5t-103.5 -583.5q0 -369 165 -668.5t464.5 -471t680.5 -171.5
q456 0 803 148l53 -160q-229 -94 -432.5 -127t-423.5 -33q-350 0 -634.5 118.5t-486 328.5t-306.5 477t-105 559q0 313 112 608t325 528t514.5 367.5t666.5 134.5q299 0 566.5 -91t468.5 -264t314.5 -425.5t113.5 -566.5q0 -265 -94 -516t-283 -410.5t-451 -159.5
q-177 0 -267.5 52.5t-123 137t-59.5 244.5h-17q-188 -209 -364.5 -309t-364.5 -100q-148 0 -240.5 87t-133 225t-40.5 294q0 181 88.5 380.5t242.5 368.5t351.5 273t403.5 104q163 0 245 -56.5t111 -111.5h13zM1483 938q190 0 364.5 164t281.5 403.5t107 436.5
q0 319 -274 319q-183 0 -355.5 -151t-279 -371.5t-106.5 -403.5q0 -170 61.5 -283.5t200.5 -113.5z" />
    <glyph glyph-name="A" unicode="A" horiz-adv-x="2966" 
d="M-86 0v57q127 16 216.5 114.5t176.5 299.5l1155 2609h41l1159 -2609q81 -176 119.5 -241.5t114 -111t213.5 -61.5v-57h-1217v57q181 30 244.5 74t63.5 111q0 87 -33 172l-254 581h-1143l-250 -577q-49 -118 -49 -168q0 -105 100.5 -149t210.5 -44v-57h-868zM1343 2314
l-495 -1134h995z" />
    <glyph glyph-name="B" unicode="B" horiz-adv-x="2925" 
d="M201 3039h1265q274 0 510 -41.5t424.5 -210t188.5 -506.5q0 -166 -69.5 -316t-203.5 -250t-317 -122v-24q303 -22 514 -216.5t211 -508.5q0 -155 -59.5 -302.5t-188 -270.5t-336.5 -197t-493 -74h-1446v57h73q229 0 297 90.5t68 217.5v2310q0 127 -68 217t-297 90h-73v57
zM1122 1499v-1274q170 -53 365 -53q212 0 377.5 81t258.5 230t93 348q0 113 -51 263t-240 281.5t-557 131.5q-160 0 -246 -8zM1122 2855v-1176q222 -24 279 -24q255 0 412 96.5t224.5 246t67.5 316.5q0 177 -99.5 303.5t-274 192t-383.5 65.5q-103 0 -226 -20z" />
    <glyph glyph-name="C" unicode="C" horiz-adv-x="3178" 
d="M2896 3056l49 -967l-57 -8q-48 213 -169.5 400.5t-333 307t-505.5 119.5q-230 0 -432 -85t-357 -254.5t-244 -429t-89 -591.5q0 -333 91.5 -591t255.5 -429t379 -255.5t458 -84.5q574 0 1028 545l94 -86q-502 -688 -1249 -688q-339 0 -631.5 124t-507 344t-331 505.5
t-116.5 603.5q0 351 129 639t356.5 491t517.5 308.5t611 105.5q337 0 668 -131q144 -53 192 -53q127 0 144 160h49z" />
    <glyph glyph-name="D" unicode="D" horiz-adv-x="3572" 
d="M201 3039h1355q642 0 1057 -209t601 -549t186 -741q0 -427 -201 -779t-581.5 -556.5t-893.5 -204.5h-1523v57h73q229 0 297 90.5t68 217.5v2310q0 127 -68 217t-297 90h-73v57zM1122 2818v-2593q201 -61 570 -61q396 0 661.5 196.5t391.5 521.5t126 711q0 440 -186 728.5
t-484 419t-640 130.5q-238 0 -439 -53z" />
    <glyph glyph-name="E" unicode="E" horiz-adv-x="2892" 
d="M2515 3039l37 -631l-62 -8q-64 275 -189 354.5t-343 79.5h-836v-1138h779q154 0 245.5 85.5t94.5 364.5h57v-1061h-57q-8 249 -96 337.5t-244 88.5h-779v-1306h836q335 0 513 131t282 438l53 -16l-221 -758h-2384v57h73q229 0 297 90.5t68 217.5v2310q0 127 -68 217
t-297 90h-73v57h2314z" />
    <glyph glyph-name="F" unicode="F" horiz-adv-x="2798" 
d="M2712 3039l57 -676h-57q-50 284 -213.5 377.5t-397.5 93.5h-979v-1159h799q393 0 393 426h58v-1044h-58q-9 235 -92.5 334.5t-300.5 99.5h-799v-1126q0 -131 72 -219.5t297 -88.5h74v-57h-1364v57h73q229 0 297 90.5t68 217.5v2310q0 127 -68 217t-297 90h-73v57h2511z
" />
    <glyph glyph-name="G" unicode="G" horiz-adv-x="3641" 
d="M3035 3060l57 -906h-57q-83 219 -236 392t-376.5 273.5t-501.5 100.5q-315 0 -581.5 -162t-424 -471t-157.5 -722q0 -467 169 -789t441.5 -477.5t577.5 -155.5q424 0 700 217v910q0 127 -68 217t-297 90h-32v57h1278v-57h-33q-228 0 -296.5 -90t-68.5 -217v-971
q-274 -165 -586.5 -252.5t-605.5 -87.5t-589 81t-551 260.5t-411.5 474t-156.5 700.5q0 308 111 596.5t328.5 517.5t535.5 360t721 131q221 0 388 -41.5t317 -105.5q132 -54 192 -54q74 0 111 56t45 125h57z" />
    <glyph glyph-name="H" unicode="H" horiz-adv-x="3584" 
d="M1122 1679h1397v996q0 127 -68 217t-297 90h-73v57h1360v-57h-74q-228 0 -296.5 -90t-68.5 -217v-2310q0 -127 68.5 -217.5t296.5 -90.5h74v-57h-1360v57h73q229 0 297 90.5t68 217.5v1110h-1397v-1110q0 -134 69 -221t296 -87h74v-57h-1360v57h73q229 0 297 90.5
t68 217.5v2310q0 127 -68 217t-297 90h-73v57h1360v-57h-74q-227 0 -296 -86.5t-69 -220.5v-996z" />
    <glyph glyph-name="I" unicode="I" horiz-adv-x="1708" 
d="M201 3039h1364v-57h-74q-225 0 -297 -88t-72 -219v-2310q0 -131 72 -219.5t297 -88.5h74v-57h-1364v57h73q229 0 297 90.5t68 217.5v2310q0 127 -68 217t-297 90h-73v57z" />
    <glyph glyph-name="J" unicode="J" horiz-adv-x="1810" 
d="M389 3039h1364v-57h-74q-226 0 -297 -88t-71 -219v-1696q0 -298 -95 -530t-276.5 -361t-431.5 -129q-210 0 -344.5 103.5t-134.5 232.5q0 96 61 154.5t156 58.5q184 0 295 -246q50 -119 143 -119q90 0 118.5 94.5t28.5 249.5v144l-4 2044q0 127 -68 217t-296 90h-74v57z
" />
    <glyph glyph-name="K" unicode="K" horiz-adv-x="3326" 
d="M201 3039h1364v-57h-78q-226 0 -295.5 -88.5t-69.5 -218.5v-2310q0 -129 69.5 -218.5t295.5 -89.5h78v-57h-1364v57h73q189 0 277 74.5t88 233.5v2310q0 159 -87 233t-278 74h-73v57zM2028 3039h1044v-57q-170 -20 -312 -100.5t-272 -207t-342.5 -365.5t-343.5 -376
l-213 -221l1004 -1098q254 -280 435.5 -407.5t383.5 -149.5v-57h-1360v57q54 5 101 9.5t80.5 14.5t55 36t21.5 71q0 35 -15.5 63.5t-39.5 54t-51 54.5l-1082 1221q100 80 294 267t388 394t325.5 379t131.5 242q0 77 -66 98t-167 21v57z" />
    <glyph glyph-name="L" unicode="L" horiz-adv-x="2789" 
d="M1122 205h820q589 0 823 610l53 -20l-246 -795h-2371v57h73q229 0 297 90.5t68 217.5v2310q0 127 -68 217t-297 90h-73v57h1360v-57h-74q-228 0 -296.5 -90t-68.5 -217v-2470z" />
    <glyph glyph-name="M" unicode="M" horiz-adv-x="4235" 
d="M1122 3039l1028 -2281l1024 2281h918v-57h-74q-191 0 -277.5 -74t-86.5 -233v-2310q0 -159 87 -233.5t277 -74.5h74v-57h-1364v57h78q227 0 295.5 89.5t68.5 218.5v2195l-1151 -2560h-37l-1142 2568v-2203q0 -129 68.5 -218.5t295.5 -89.5h78v-57h-1081v57h73
q229 0 297 90.5t68 217.5v2310q0 127 -68 217t-297 90h-73v57h921z" />
    <glyph glyph-name="N" unicode="N" horiz-adv-x="3613" 
d="M975 3039l1888 -2220v1856q0 130 -68.5 218.5t-295.5 88.5h-74v57h1073v-57h-78q-227 0 -295.5 -88.5t-68.5 -218.5v-2716h-58l-2134 2478v-2072q0 -159 88 -233.5t277 -74.5h74v-57h-1074v57h78q227 0 296 89t69 219v2306q-129 157 -268 234t-318 77v57h889z" />
    <glyph glyph-name="O" unicode="O" horiz-adv-x="3314" 
d="M1642 -41q-386 0 -711.5 205t-513.5 565t-188 803q0 470 213 823t560 539t727 186q293 0 551.5 -114.5t452 -324.5t301.5 -501t108 -633q0 -305 -102.5 -583t-300.5 -497.5t-477 -343.5t-620 -124zM1667 135q190 0 361 87t303 261t207 433t75 587q0 477 -133 793.5
t-341 462t-435 145.5q-153 0 -315.5 -70.5t-306 -228.5t-234 -426t-90.5 -643q0 -424 117.5 -743t324.5 -488.5t467 -169.5z" />
    <glyph glyph-name="P" unicode="P" horiz-adv-x="2707" 
d="M201 3039h1216q1204 0 1204 -807q0 -262 -133 -462t-367 -307t-524 -107q-154 0 -475 82v-1073q0 -127 68.5 -217.5t296.5 -90.5h74v-57h-1360v57h73q189 0 277 74.5t88 233.5v2310q0 159 -87 233t-278 74h-73v57zM1122 2839v-1246q160 -57 357 -57q267 0 405.5 133.5
t175.5 277.5t37 232q0 406 -223 543t-481 137q-168 0 -271 -20z" />
    <glyph glyph-name="Q" unicode="Q" horiz-adv-x="3314" 
d="M3076 -713v-57q-241 0 -497 49.5t-498.5 148t-446 242.5t-344.5 330q-262 73 -461.5 225.5t-333 362t-200 453t-66.5 491.5q0 308 103.5 589.5t300 497.5t475.5 338.5t621 122.5q318 0 581.5 -127.5t450 -352t284 -506t97.5 -587.5q0 -249 -71.5 -487.5t-212 -443
t-347 -353.5t-467.5 -219q163 -318 436.5 -511t595.5 -206zM1667 135q279 0 494.5 172.5t333.5 485.5t118 710q0 280 -56.5 529.5t-170.5 447t-286.5 311t-395.5 113.5q-289 0 -504 -181t-328.5 -494.5t-113.5 -692.5q0 -269 56.5 -520t172 -451t287 -314.5t393.5 -115.5z
" />
    <glyph glyph-name="R" unicode="R" horiz-adv-x="3154" 
d="M201 3039h1384q241 0 459.5 -44t393.5 -214.5t175 -511.5q0 -223 -104.5 -391.5t-271 -267.5t-349.5 -131l832 -1069q143 -184 256.5 -265t292.5 -88v-57h-832l-1048 1434h-263v-1069q0 -127 68.5 -217.5t296.5 -90.5h74v-57h-1364v57h73q225 0 297 88.5t72 219.5v2314
q0 137 -77 220t-292 83h-73v57zM1126 2847v-1237q50 -4 140 -4q280 0 473 84.5t286 232.5t93 338q0 157 -71 302t-224.5 237t-384.5 92q-162 0 -312 -45z" />
    <glyph glyph-name="S" unicode="S" horiz-adv-x="2454" 
d="M2036 3080v-979h-58q-7 219 -116.5 404t-287 292t-374.5 107q-122 0 -236 -52.5t-184.5 -147.5t-70.5 -218q0 -139 89.5 -258.5t236 -222t362.5 -223.5q398 -228 612.5 -462t214.5 -595q0 -241 -137.5 -415.5t-358.5 -262.5t-471 -88q-129 0 -206.5 19t-243.5 71
q-134 49 -213 62h-70q-123 -23 -147 -152h-58l5 1028h57q53 -343 263 -591.5t556 -248.5q154 0 287 50t214 153t81 252q0 189 -106 336t-248 245t-351 214q-233 130 -389.5 245t-264.5 282t-108 386q0 178 71 323t196 245t283 151t331 51q198 0 471 -102q93 -41 172 -41
q53 0 96 42t52 101h49z" />
    <glyph glyph-name="T" unicode="T" horiz-adv-x="2777" 
d="M123 3039h2589l36 -688h-57q-29 483 -549 483h-483v-2469q0 -131 71.5 -219.5t292.5 -88.5h74v-57h-1360v57h74q189 0 277 74.5t88 233.5v2469h-484q-520 0 -549 -483h-57z" />
    <glyph glyph-name="U" unicode="U" horiz-adv-x="3580" 
d="M172 3039h1364v-57h-74q-178 0 -271 -69.5t-93 -237.5v-1602q0 -216 48.5 -409.5t242.5 -348.5t585 -155q380 0 576 170t250.5 380t54.5 404v1561q0 127 -68 217t-297 90h-73v57h1077v-57h-74q-228 0 -296 -86.5t-68 -220.5v-1643q0 -349 -131 -570t-321.5 -328.5
t-368.5 -141t-310 -33.5q-285 0 -577.5 81.5t-513 331.5t-220.5 709v1594q0 130 -68.5 218.5t-295.5 88.5h-78v57z" />
    <glyph glyph-name="V" unicode="V" horiz-adv-x="2912" 
d="M-86 3039h1241v-57q-154 0 -245 -24.5t-91 -106.5q0 -85 45 -185l832 -1929l745 1876q41 95 41 197q0 90 -68 131t-227 41v57h869v-57q-162 -5 -255.5 -129.5t-166.5 -308.5l-1032 -2585h-54l-1134 2585q-71 162 -130.5 254t-145 138t-224.5 46v57z" />
    <glyph glyph-name="W" unicode="W" horiz-adv-x="4026" 
d="M-70 3039h1135v-57q-270 -14 -270 -172q0 -50 16 -90l688 -1815l500 1340l-152 385q-68 175 -154 263.5t-243 88.5v57h1159v-57q-162 0 -230.5 -52.5t-68.5 -119.5q0 -96 37 -201l651 -1704l582 1692q45 121 45 213q0 172 -299 172v57h823l4 -57q-91 -7 -156 -53.5
t-106.5 -112.5t-70 -145t-43.5 -123l-869 -2589h-53l-741 1974l-730 -1974h-49l-1048 2753q-53 142 -129.5 206t-223.5 64z" />
    <glyph glyph-name="X" unicode="X" horiz-adv-x="3084" 
d="M57 3039h1336v-57q-142 0 -222.5 -26.5t-80.5 -116.5q0 -68 57 -152l528 -819l578 753q98 129 98 218q0 143 -274 143v57h934v-57q-180 -25 -279 -103.5t-242 -265.5l-700 -921l786 -1209q260 -396 537 -426v-57h-1241v57q152 4 225.5 22t73.5 93q0 89 -57 176l-627 959
l-762 -996q-45 -58 -45 -123q0 -131 283 -131v-57h-934v57q153 12 245.5 84t225.5 240l880 1110l-729 1094q-243 375 -594 397v57z" />
    <glyph glyph-name="Y" unicode="Y" horiz-adv-x="2937" 
d="M-86 3039h1274v-57h-53q-250 0 -250 -139q0 -65 69 -181l684 -1118l721 1168q41 68 41 135q0 135 -229 135h-62v57h971v-57q-325 -27 -573 -434l-770 -1266v-917q0 -129 68.5 -218.5t295.5 -89.5h78v-57h-1364v57h74q190 0 277 74t87 234v917l-860 1380
q-104 169 -208 241.5t-271 78.5v57z" />
    <glyph glyph-name="Z" unicode="Z" horiz-adv-x="2953" 
d="M471 3039h2310l-1958 -2834h1233q318 0 485 140t240 441h58l-156 -786h-2568l1982 2834h-983q-169 0 -278.5 -22.5t-181 -78t-114.5 -156.5t-69 -267h-57z" />
    <glyph glyph-name="bracketleft" unicode="[" horiz-adv-x="1528" 
d="M459 3039h839v-114h-454v-3584h454v-115h-839v3813z" />
    <glyph glyph-name="backslash" unicode="\" horiz-adv-x="1864" 
d="M1651 -864l-1651 3907l217 90l1647 -3907z" />
    <glyph glyph-name="bracketright" unicode="]" horiz-adv-x="1528" 
d="M1069 3039v-3813h-840v115h455v3584h-455v114h840z" />
    <glyph glyph-name="asciicircum" unicode="^" horiz-adv-x="2163" 
d="M1081 2773l-626 -840h-226l852 1147l852 -1147h-221z" />
    <glyph glyph-name="underscore" unicode="_" horiz-adv-x="2376" 
d="M0 -803v197h2376v-197h-2376z" />
    <glyph glyph-name="grave" unicode="`" horiz-adv-x="1954" 
d="M1229 2253h-111l-500 500q-65 65 -65 176q0 77 69 126.5t164 49.5q130 0 197 -180z" />
    <glyph glyph-name="a" unicode="a" horiz-adv-x="2028" 
d="M1982 332l46 -45q-268 -328 -492 -328q-103 0 -174.5 96.5t-71.5 263.5q-370 -360 -708 -360q-130 0 -230 71.5t-154.5 186t-54.5 234.5q0 230 154 388.5t380 258t613 229.5v270q0 193 -104.5 297.5t-284.5 104.5q-149 0 -236 -83t-87 -200q0 -42 6 -67t6 -68
q0 -93 -58.5 -136.5t-130.5 -43.5q-77 0 -124.5 60t-47.5 145q0 152 109 270.5t284 182t361 63.5q676 0 676 -545v-1249q0 -41 29.5 -74t80.5 -33q111 0 213 111zM1290 426v774q-264 -96 -411 -162t-263 -184t-116 -285q0 -143 81 -255.5t259 -112.5q60 0 176.5 47
t273.5 178z" />
    <glyph glyph-name="b" unicode="b" horiz-adv-x="2208" 
d="M-57 2830l696 267v-1385q262 410 623 410q232 0 415.5 -134.5t285 -366t101.5 -511.5q0 -342 -150.5 -606t-395.5 -406.5t-514 -142.5q-359 0 -734 287v2248q0 312 -164 312q-78 0 -143 -29zM639 1528v-1163q74 -116 201 -185t254 -69q175 0 312.5 125.5t213.5 329.5
t76 429q0 248 -82 432.5t-219.5 281.5t-296.5 97q-142 0 -263.5 -79t-195.5 -199z" />
    <glyph glyph-name="c" unicode="c" horiz-adv-x="2044" 
d="M1819 786l82 -24q-109 -411 -328.5 -607t-536.5 -196q-243 0 -447.5 132t-325 379t-120.5 574q0 215 69.5 411t200 346.5t311.5 235.5t402 85q175 0 332.5 -58.5t252.5 -161t95 -227.5q0 -119 -58 -172t-134 -53q-196 0 -225 225q-19 144 -80.5 225.5t-231.5 81.5
q-152 0 -281 -91.5t-204.5 -274t-75.5 -436.5q0 -273 88.5 -470.5t245.5 -298t358 -100.5q150 0 275 65t211 174t125 236z" />
    <glyph glyph-name="d" unicode="d" horiz-adv-x="2314" 
d="M1217 2793l741 304v-2528q0 -311 151 -311q80 0 160 33l17 -53l-697 -275v311q-160 -178 -339.5 -246.5t-323.5 -68.5q-204 0 -384.5 128.5t-289.5 368.5t-109 552q0 231 77.5 436.5t211.5 357t307.5 236t362.5 84.5q269 0 487 -160v553q0 266 -168 266q-96 0 -184 -41z
M1589 446v1094q0 197 -145 315.5t-338 118.5q-157 0 -287 -107.5t-206 -303.5t-76 -449q0 -203 67 -400.5t208.5 -326.5t350.5 -129q259 0 426 188z" />
    <glyph glyph-name="e" unicode="e" horiz-adv-x="2003" 
d="M1790 1298h-1327q0 -286 82.5 -514t237.5 -358.5t360 -130.5q142 0 270.5 67.5t225.5 184.5t151 264l70 -25q-80 -243 -196.5 -427.5t-287.5 -292t-397 -107.5q-203 0 -360.5 93.5t-263 253t-159 359t-53.5 412.5q0 279 107.5 520t309.5 383t468 142q259 0 430.5 -119
t251.5 -307t80 -398zM471 1438h868q0 130 -46.5 249.5t-143 195t-240.5 75.5q-214 0 -314 -161.5t-124 -358.5z" />
    <glyph glyph-name="f" unicode="f" horiz-adv-x="1319" 
d="M446 1925h-327v156h327v143q0 227 89.5 427t262 323t406.5 123q119 0 252.5 -39t227.5 -118.5t94 -195.5q0 -79 -50 -123.5t-118 -44.5q-89 0 -133.5 42.5t-116.5 146.5q-50 78 -109.5 123t-165.5 45q-116 0 -174.5 -60.5t-78 -171.5t-21.5 -297q0 -46 2 -153t2 -170h418
v-156h-418v-1524q0 -162 59.5 -253t276.5 -91h53v-57h-1118v57h45q203 0 259 92t56 252v1524z" />
    <glyph glyph-name="g" unicode="g" horiz-adv-x="2011" 
d="M1405 1958l508 12l-17 -184h-348q127 -174 127 -344q0 -275 -185.5 -477.5t-547.5 -202.5q-173 0 -295 41q-155 -117 -155 -225q0 -111 405 -111h172q281 -2 464 -37t287.5 -146t104.5 -329q0 -159 -87.5 -296.5t-237 -235.5t-340.5 -151.5t-392 -53.5
q-310 0 -504.5 71.5t-273 171.5t-78.5 195q0 65 40.5 137.5t102.5 139t141.5 136t113.5 99.5q-103 28 -156 100.5t-53 141.5q0 184 327 442q-173 81 -262.5 232t-89.5 329t70.5 311.5t184.5 218.5t244.5 125.5t250.5 40.5q260 0 479 -151zM528 139q-176 -190 -176 -344
q0 -140 178 -215.5t445 -75.5q341 0 524.5 76t237 161.5t53.5 139.5q0 100 -45 148t-170 66.5t-391 23.5q-343 0 -656 20zM967 889q331 0 331 401q0 213 -59.5 369.5t-160 239.5t-218.5 83q-120 0 -221.5 -90t-101.5 -303q0 -245 108.5 -468.5t321.5 -231.5z" />
    <glyph glyph-name="h" unicode="h" horiz-adv-x="2388" 
d="M90 2830l696 267v-1434q254 284 411 371.5t314 87.5q223 0 370 -155.5t147 -446.5v-1119q0 -160 56 -252t259 -92h45v-57h-1032v57h41q171 0 216.5 93.5t45.5 250.5v1049q0 401 -328 401q-251 0 -545 -299v-1151q0 -157 46 -250.5t217 -93.5h41v-57h-1033v57h45
q204 0 260 92t56 252v2089q0 312 -164 312q-78 0 -143 -29z" />
    <glyph glyph-name="i" unicode="i" horiz-adv-x="1204" 
d="M815 2130v-1729q0 -160 56 -252t259 -92h46v-57h-1090v57h45q203 0 259 92t56 252v1123q0 311 -163 311q-87 0 -144 -29l-20 54zM385 2810q0 94 69.5 161.5t159.5 67.5q91 0 160.5 -67.5t69.5 -161.5q0 -91 -70.5 -160.5t-159.5 -69.5q-94 0 -161.5 70t-67.5 160z" />
    <glyph glyph-name="j" unicode="j" horiz-adv-x="1053" 
d="M766 2130v-1958q0 -161 -46 -369.5t-225 -394.5t-528 -186q-181 0 -260.5 70.5t-79.5 158.5q0 61 41.5 108.5t130.5 47.5q72 0 113 -25t92 -78q114 -114 209 -114q113 0 148.5 145.5t35.5 398.5v185v1405q0 311 -159 311q-82 0 -144 -29l-20 54zM336 2810q0 97 71 163
t158 66q51 0 105.5 -27t89.5 -79t35 -123q0 -104 -73.5 -167t-156.5 -63q-91 0 -160 70.5t-69 159.5z" />
    <glyph glyph-name="k" unicode="k" horiz-adv-x="2179" 
d="M90 2830l696 267v-1926h21l418 443q50 54 123.5 130t95.5 109t22 68q0 64 -53 81t-160 21v58h844v-58q-261 0 -516 -270l-467 -487l696 -918q90 -119 181 -195t245 -96v-57h-913v57h57q34 0 68.5 20t34.5 54q0 61 -45 123l-631 852h-21v-705q0 -103 12 -172.5
t64.5 -120.5t161.5 -51h37v-57h-1004v57h45q204 0 260 92t56 252v2089q0 312 -164 312q-78 0 -143 -29z" />
    <glyph glyph-name="l" unicode="l" horiz-adv-x="1176" 
d="M90 2830l696 267v-2696q0 -160 56.5 -252t259.5 -92h45v-57h-1090v57h45q204 0 260 92t56 252v2089q0 312 -164 312q-78 0 -143 -29z" />
    <glyph glyph-name="m" unicode="m" horiz-adv-x="3633" 
d="M815 2130v-410q155 142 268 227t219 130t218 45q188 0 331.5 -109t171.5 -325q229 227 382 330.5t307 103.5q246 0 371 -116.5t157.5 -255.5t32.5 -271v-1078q0 -160 56 -252t259 -92h45v-57h-1036v57h41q174 0 220 93.5t46 250.5v1065q0 204 -79 294.5t-253 90.5
q-121 0 -269 -85.5t-259 -196.5v-1168q0 -157 46.5 -250.5t219.5 -93.5h41v-57h-979v57h37q174 0 220 93.5t46 250.5v1069q0 381 -344 381q-121 0 -261.5 -82t-254.5 -196v-1172q0 -173 54.5 -258.5t232.5 -85.5h45v-57h-1061v57h45q203 0 259 92t56 252v1123
q0 148 -33 229.5t-130 81.5q-82 0 -144 -29l-20 54z" />
    <glyph glyph-name="n" unicode="n" horiz-adv-x="2417" 
d="M815 2130v-467q254 284 411 371.5t314 87.5q158 0 274.5 -76.5t179 -220t62.5 -334.5v-1090q0 -105 15.5 -174t83.5 -119.5t212 -50.5h50v-57h-1033v57h41q171 0 217 93.5t46 250.5v1049q0 253 -95.5 327t-232.5 74q-258 0 -545 -299v-1151q0 -159 51 -251.5t240 -92.5
h45v-57h-1065v57h45q203 0 259 93t56 251v1123q0 311 -163 311q-82 0 -144 -29l-20 54z" />
    <glyph glyph-name="o" unicode="o" horiz-adv-x="2318" 
d="M1159 -41q-260 0 -454.5 97t-319 258t-183.5 349.5t-59 372.5q0 216 74 414t210.5 349.5t323 237t408.5 85.5q303 0 534 -142t356.5 -389.5t125.5 -550.5q0 -328 -146.5 -574.5t-382 -376.5t-487.5 -130zM569 1065q0 -214 77 -435t228 -368t355 -147q520 0 520 950
q0 208 -81.5 418t-235.5 346.5t-355 136.5q-277 0 -392.5 -265t-115.5 -636z" />
    <glyph glyph-name="p" unicode="p" horiz-adv-x="2306" 
d="M729 2130v-406q164 201 318.5 299.5t353.5 98.5q321 0 541.5 -275t220.5 -770q0 -303 -134 -561t-356 -407.5t-469 -149.5q-257 0 -475 152v-484q0 -163 57.5 -253.5t278.5 -90.5h82v-57h-1147v57h45q203 0 259 92t56 252v1897q0 148 -33 229.5t-130 81.5q-82 0 -144 -29
l-20 54zM729 1548v-1007q0 -221 152.5 -328t322.5 -107q143 0 270.5 98t205 290.5t77.5 451.5q0 230 -48.5 399.5t-132 274t-192 154t-233.5 49.5q-114 0 -225.5 -74.5t-196.5 -200.5z" />
    <glyph glyph-name="q" unicode="q" horiz-adv-x="2269" 
d="M1966 2142v-2515q0 -158 56 -251t259 -93h46v-57h-1151v57h81q219 0 279.5 93t60.5 251v692q-291 -335 -639 -335q-231 0 -416.5 122t-292 352t-106.5 541q0 214 72.5 416.5t204 363t307.5 252t375 91.5q301 0 545 -135zM1597 483v1028q0 159 -79 307t-347 148
q-171 0 -318.5 -95t-236 -285.5t-88.5 -459.5q0 -357 158.5 -592t472.5 -235q261 0 438 184z" />
    <glyph glyph-name="r" unicode="r" horiz-adv-x="1540" 
d="M815 2126v-385q92 155 225.5 268t278.5 113q91 0 184.5 -51.5t93.5 -182.5q0 -86 -48 -151.5t-140 -65.5t-172 86q-63 70 -143 70q-121 0 -279 -250v-1176q0 -105 16.5 -174t90.5 -119.5t229 -50.5h53v-57h-1118v57h49q202 0 256.5 92.5t54.5 251.5v1123q0 311 -163 311
q-82 0 -144 -29l-20 54z" />
    <glyph glyph-name="s" unicode="s" horiz-adv-x="1577" 
d="M1352 2052l12 -614h-61q-14 174 -91.5 297t-194 185t-243.5 62q-149 0 -252.5 -83t-103.5 -220q0 -77 30.5 -136.5t82 -103t125 -84t155.5 -85.5q234 -131 371.5 -230t223 -235.5t85.5 -321.5q0 -246 -203 -383t-473 -137q-77 0 -311 57q-114 33 -148 33q-88 0 -118 -61
h-70l-12 737h61q33 -229 173 -430t425 -201q190 0 273 92.5t83 198.5q0 153 -108.5 258t-284.5 201q-247 139 -312 178t-148.5 115t-129 176t-45.5 235q0 147 79.5 277.5t221.5 211.5t314 81q145 0 215 -20t141.5 -53.5t122.5 -33.5q22 0 74 37h41z" />
    <glyph glyph-name="t" unicode="t" horiz-adv-x="1360" 
d="M713 2081h450v-156h-450v-1307q0 -185 55.5 -301t222.5 -116q150 0 299 176l41 -37q-287 -381 -569 -381q-169 0 -261 75.5t-124.5 204.5t-32.5 314v1372h-315v82q75 27 192 96.5t245 217.5t189 370h58v-610z" />
    <glyph glyph-name="u" unicode="u" horiz-adv-x="2327" 
d="M1970 2081v-1512q0 -129 28.5 -220t135.5 -91q81 0 143 29l21 -54l-696 -270v455q-154 -182 -279.5 -282.5t-230.5 -138.5t-220 -38q-512 0 -512 631v1089q0 161 -56 252.5t-259 91.5h-45v58h729v-1450q0 -192 61 -297t267 -105q133 0 278 84.5t267 214.5v1151
q0 178 -53.5 261t-233.5 83h-45v58h700z" />
    <glyph glyph-name="v" unicode="v" horiz-adv-x="1991" 
d="M991 -41l-717 1798q-103 258 -331 262v62h909v-62q-126 -11 -173.5 -36.5t-47.5 -114.5q0 -37 24 -111l455 -1139l451 1160q28 73 28 127q0 114 -151 114h-45v62h598v-62q-103 -14 -149.5 -65.5t-92.5 -171.5l-713 -1823h-45z" />
    <glyph glyph-name="w" unicode="w" horiz-adv-x="2986" 
d="M930 -41l-672 1774q-105 282 -315 286v62h860v-62q-105 -8 -149 -32t-44 -111q0 -63 37 -164l402 -1094l389 881l-99 258q-95 255 -311 262v62h885v-62h-45q-76 0 -124 -39t-48 -108q0 -44 33 -139l409 -1115l402 1119q36 110 36 172q0 110 -139 110h-49v62h598v-62
q-114 -23 -158 -86.5t-96 -195.5l-664 -1778h-49l-495 1315l-545 -1315h-49z" />
    <glyph glyph-name="x" unicode="x" horiz-adv-x="2048" 
d="M29 2081h921v-58h-32q-83 0 -117.5 -34.5t-34.5 -71.5q0 -52 37 -115l315 -520l348 520q41 58 41 115q0 106 -151 106h-49v58h667v-58q-185 -13 -323 -221l-434 -643l495 -827q141 -230 365 -275v-57h-930v57q101 10 151 32t50 87q0 43 -45 107l-365 602l-389 -574
q-62 -79 -62 -135q0 -48 38.5 -83.5t113.5 -35.5h49v-57h-688v57q128 21 214.5 89.5t170.5 193.5l463 676l-471 770q-145 237 -307 237h-41v58z" />
    <glyph glyph-name="y" unicode="y" horiz-adv-x="2060" 
d="M-16 2081h921v-58q-237 0 -237 -151q0 -41 24 -103l508 -1261l406 1130q41 128 41 222q0 84 -68 123.5t-125 39.5h-61v58h725v-58q-127 -8 -192 -95.5t-116 -223.5l-680 -1831q-114 -311 -277 -483t-411 -172q-134 0 -208 65t-74 156q0 83 68 146t169 63q64 0 156 -41
q88 -41 147 -41q110 0 186 123t142 307l-745 1773q-35 90 -111.5 172t-187.5 82v58z" />
    <glyph glyph-name="z" unicode="z" horiz-adv-x="1950" 
d="M233 1511l21 570h1610l-1274 -1925h741q249 0 346 112.5t97 362.5h57v-631h-1774l1274 1925h-729q-138 0 -210.5 -71t-100.5 -343h-58z" />
    <glyph glyph-name="braceleft" unicode="{" horiz-adv-x="1573" 
d="M446 1143v-21q242 -37 363.5 -151t151.5 -237t30 -255q0 -131 -8 -377q-4 -110 -4 -327q0 -165 54.5 -298.5t252.5 -181.5v-114q-401 71 -511.5 282t-110.5 480q0 113 6 274t6 254q0 236 -74.5 399t-314.5 179v168q240 16 314.5 178.5t74.5 398.5q0 93 -6 255t-6 273
q0 169 32.5 308.5t170 271t419.5 182.5v-114q-198 -48 -252.5 -181.5t-54.5 -298.5q0 -221 4 -327q8 -238 8 -377q0 -132 -30 -255t-151.5 -237t-363.5 -151z" />
    <glyph glyph-name="bar" unicode="|" horiz-adv-x="688" 
d="M229 -918v4314h230v-4314h-230z" />
    <glyph glyph-name="braceright" unicode="}" horiz-adv-x="1573" 
d="M1126 1122v21q-242 37 -361.5 152t-149 237.5t-29.5 253.5q0 250 4 377q8 204 8 327q0 405 -311 480v114q393 -71 507.5 -269.5t114.5 -492.5q0 -194 -4 -302t-4 -226q0 -148 24.5 -266.5t110 -207t250.5 -103.5v-168q-166 -15 -251 -104t-109.5 -207.5t-24.5 -266.5
q0 -118 4 -225t4 -303q0 -293 -114.5 -492t-507.5 -270v114q198 48 254.5 183.5t56.5 296.5q0 123 -8 327q-4 127 -4 377q0 131 29.5 253.5t149 237.5t361.5 152z" />
    <glyph glyph-name="asciitilde" unicode="~" horiz-adv-x="2658" 
d="M352 2249l-123 86q105 166 280 292t429 126q80 0 149 -12.5t121.5 -32t123 -53t106.5 -50.5q322 -151 467 -151q215 0 401 303l123 -86q-124 -205 -269.5 -315.5t-332.5 -110.5q-147 0 -284 47t-384 162q-122 55 -183.5 74.5t-156.5 19.5q-261 0 -467 -299z" />
    <glyph glyph-name="nonbreakingspace" unicode="&#xa0;" horiz-adv-x="1954" 
 />
    <glyph glyph-name="exclamdown" unicode="&#xa1;" horiz-adv-x="2986" 
d="M1749 1130l672 1475q57 126 57 213q0 76 -80.5 120t-218.5 44v57h922v-57q-185 -8 -290.5 -133t-184.5 -293l-889 -1917q-82 -174 -186 -321t-274 -253t-400 -106q-206 0 -295.5 82t-89.5 192q0 83 67 142t178 59q110 0 221 -82q75 -52 102.5 -67t82.5 -15q227 0 352 328
l-983 1995q-88 176 -199.5 282.5t-283.5 106.5v57h1228v-57q-134 0 -210 -28t-76 -111q0 -102 28 -164zM1729 3342q108 0 195 45t99 107v45q-3 14 -20 57q-12 31 -12 66q0 72 51 136.5t149 64.5q97 0 153 -61.5t56 -147.5q0 -100 -70.5 -202t-220.5 -169.5t-372 -67.5
q-244 0 -399.5 73.5t-222 176.5t-66.5 189q0 83 55 146t158 63q192 0 192 -201q0 -24 -8 -66q0 -2 -7 -24.5t-9 -32.5v-45q14 -68 102.5 -110t196.5 -42z" />
    <glyph glyph-name="cent" unicode="&#xa2;" horiz-adv-x="2060" 
d="M-16 2081h921v-58q-237 0 -237 -151q0 -41 24 -103l512 -1261l406 1130q37 157 37 222q0 85 -65 124t-128 39h-57v58h721v-58q-129 -10 -191.5 -94.5t-116.5 -224.5l-675 -1831q-246 -655 -693 -655q-120 0 -199 60.5t-79 160.5q0 91 65 150t168 59q64 0 156 -41
q88 -41 147 -41q110 0 186 123t142 307l-745 1773q-109 254 -299 254v58zM1130 2413q120 0 232.5 43t112.5 112q0 22 -21 119q-8 40 -8 61q0 63 37.5 113.5t109.5 50.5q70 0 119 -48t49 -128q0 -86 -59 -185.5t-200 -172t-363 -72.5q-211 0 -355 64.5t-214 163t-70 202.5
q0 88 50.5 132t117.5 44q74 0 110.5 -49.5t36.5 -114.5q0 -41 -8 -61q-1 -5 -9.5 -27t-11.5 -30v-62q19 -68 121 -111.5t223 -43.5z" />
    <glyph glyph-name="sterling" unicode="&#xa3;" horiz-adv-x="2269" 
d="M365 -733l-21 78q181 54 284 149t139 194.5t36 184.5q0 60 -29 147q-69 -61 -164 -61q-119 0 -178 72.5t-59 173.5q0 112 84.5 181t201.5 69q151 0 241.5 -121t90.5 -334q0 -226 -102 -381t-243 -236t-281 -116zM1298 -733l-20 78q239 64 349 216.5t110 311.5
q0 60 -29 147q-69 -61 -164 -61q-118 0 -175.5 73t-57.5 173q0 126 89 188t193 62q134 0 233 -111.5t99 -343.5q0 -226 -102 -381t-243 -236.5t-282 -115.5z" />
    <glyph glyph-name="currency" unicode="&#xa4;" horiz-adv-x="3170" 
d="M2720 2875l164 -163l-414 -410q134 -160 198 -346t64 -379t-63.5 -377.5t-198.5 -347.5l414 -410l-164 -163l-410 413q-315 -262 -725 -262t-725 262l-409 -413l-164 163l413 410q-262 315 -262 725t262 725l-413 410l164 163l409 -413q163 135 347.5 198.5t377.5 63.5
t379 -64t346 -198zM668 1577q0 -256 124.5 -473t335.5 -343t457 -126t457 126t336 343t125 473t-125 473t-336 343t-457 126t-457 -126t-335.5 -343t-124.5 -473z" />
    <glyph glyph-name="yen" unicode="&#xa5;" horiz-adv-x="2372" 
d="M1794 3039q185 0 325.5 95.5t166.5 396.5h57v-697h-1221v-2469q0 -127 68.5 -217.5t296.5 -90.5h74v-57h-1360v57h73q229 0 297 90.5t68 217.5v2310q0 127 -68 217t-297 90h-73v57h1593z" />
    <glyph glyph-name="brokenbar" unicode="&#xa6;" horiz-adv-x="688" 
d="M229 -918v4314h230v-4314h-230z" />
    <glyph glyph-name="section" unicode="&#xa7;" horiz-adv-x="2253" 
d="M1106 229l-565 480q-312 262 -312 618q0 216 128.5 385.5t326.5 265.5q-188 222 -188 545q0 272 191.5 416.5t479.5 144.5q236 0 392 -82.5t228.5 -206.5t72.5 -247q0 -139 -67 -192.5t-142 -53.5q-83 0 -148 50.5t-65 146.5q0 32 16 106q16 66 16 98q0 78 -79 152
t-211 74q-178 0 -296 -82.5t-118 -229.5q0 -222 295 -463l586 -479q199 -161 287.5 -316t88.5 -347q0 -413 -467 -688q197 -206 197 -484q0 -175 -88.5 -325.5t-249.5 -240t-366 -89.5q-292 0 -484 137.5t-192 366.5q0 146 59.5 234.5t173.5 88.5q99 0 164.5 -61.5
t65.5 -175.5q0 -38 -25 -107q-37 -86 -37 -110q0 -74 66 -143.5t221 -69.5q181 0 293 99t112 265q0 112 -50.5 201t-115 149.5t-194.5 169.5zM1393 1372l-607 508q-282 -159 -282 -385q0 -130 69.5 -242.5t233.5 -253.5l659 -561q287 177 287 418q0 138 -92 253.5
t-268 262.5z" />
    <glyph glyph-name="dieresis" unicode="&#xa8;" horiz-adv-x="2892" 
d="M201 3039h2314l37 -631l-62 -8q-64 275 -189 354.5t-343 79.5h-836v-1138h779q154 0 245.5 85.5t94.5 364.5h57v-1061h-57q-8 249 -96 337.5t-244 88.5h-779v-1306h836q335 0 513 131t282 438l53 -16l-221 -758h-2384v57h73q229 0 297 90.5t68 217.5v2310q0 127 -68 217
t-297 90h-73v57zM729 3498q0 90 67 159.5t162 69.5q53 0 106.5 -26.5t88.5 -78.5t35 -124t-35 -124t-88.5 -78.5t-106.5 -26.5q-94 0 -161.5 69.5t-67.5 159.5zM1761 3498q0 90 68.5 159.5t161.5 69.5q53 0 106 -26.5t88 -78.5t35 -124t-35 -124t-88 -78.5t-106 -26.5
q-91 0 -160.5 69.5t-69.5 159.5z" />
    <glyph glyph-name="copyright" unicode="&#xa9;" horiz-adv-x="3670" 
d="M229 1520q0 299 114 587.5t326 518t511.5 364.5t654.5 135q440 0 808.5 -217t583 -587t214.5 -801q0 -439 -218.5 -808t-589.5 -583.5t-798 -214.5q-431 0 -801.5 214.5t-587.5 583t-217 808.5zM401 1520q0 -392 195 -722t526.5 -521t712.5 -191q392 0 722.5 195t521 526
t190.5 713q0 356 -179.5 688t-508 538.5t-746.5 206.5q-381 0 -712.5 -191t-526.5 -520.5t-195 -721.5zM2560 2478l29 -610l-86 -4q-49 212 -204.5 349.5t-393.5 137.5q-178 0 -323.5 -90t-232.5 -276.5t-87 -456.5q0 -217 77.5 -400t234.5 -293t384 -110q348 0 631 315
l94 -82q-338 -430 -823 -430q-255 0 -486 120.5t-372.5 348.5t-141.5 527q0 294 140.5 514.5t377.5 336t518 115.5q211 0 414 -86q66 -24 98 -24q40 0 65.5 26.5t25.5 71.5h61z" />
    <glyph glyph-name="ordfeminine" unicode="&#xaa;" horiz-adv-x="3178" 
d="M2896 3056l49 -967l-57 -8q-48 213 -169.5 400.5t-333 307t-505.5 119.5q-375 0 -626.5 -189.5t-371 -481t-124.5 -603.5h1057q106 0 184.5 23t139.5 122.5t61 305.5h57v-1077h-57q0 270 -104 352t-273 82h-1061q11 -332 143.5 -617t395.5 -461t641 -176q574 0 1028 545
l94 -86q-502 -688 -1249 -688q-339 0 -631.5 124t-507 344t-331 505.5t-116.5 603.5q0 351 129 639t356.5 491t517.5 308.5t611 105.5q337 0 668 -131q144 -53 192 -53q127 0 144 160h49z" />
    <glyph glyph-name="guillemotleft" unicode="&#xab;" horiz-adv-x="1970" 
d="M1221 1962l65 -61l-635 -857l635 -811l-65 -61l-1049 872zM1749 1802l49 -53l-393 -705l393 -708l-49 -45l-762 753z" />
    <glyph glyph-name="logicalnot" unicode="&#xac;" horiz-adv-x="3219" 
d="M410 1462v230h2695v-844h-238v614h-2457z" />
    <glyph glyph-name="minus" unicode="&#xad;" 
d="M201 1462v230h2695v-230h-2695z" />
    <glyph glyph-name="registered" unicode="&#xae;" horiz-adv-x="3654" 
d="M242 1520q0 430 220 800t596 587.5t818 217.5q441 0 802.5 -216.5t568 -587t206.5 -801.5q0 -437 -224.5 -806.5t-602 -584.5t-807.5 -215q-428 0 -791.5 214t-574.5 584t-211 808zM414 1520q0 -385 184 -715t507 -524.5t714 -194.5q285 0 552 109.5t472.5 307.5
t321.5 461.5t116 555.5q0 392 -189 722t-514.5 520.5t-705.5 190.5q-393 0 -729.5 -195.5t-532.5 -525.5t-196 -712zM1032 2429h897q574 0 574 -434q0 -106 -54 -202.5t-149.5 -162.5t-214.5 -82l430 -610q35 -50 103 -94.5t147 -44.5v-90h-496l-524 782h-107v-520
q0 -172 156 -172h86v-90h-852v90h86q164 0 164 172v1196q0 172 -160 172h-86v90zM1638 2281v-651q471 0 471 361q0 132 -76.5 221.5t-205.5 89.5q-84 0 -189 -21z" />
    <glyph glyph-name="macron" unicode="&#xaf;" horiz-adv-x="1704" 
d="M201 3039h1360v-57h-74q-228 0 -296.5 -90t-68.5 -217v-2310q0 -127 68.5 -217.5t296.5 -90.5h74v-57h-1360v57h73q229 0 297 90.5t68 217.5v2310q0 127 -68 217t-297 90h-73v57zM283 3498q0 108 75 168.5t154 60.5q95 0 162 -68.5t67 -160.5t-67.5 -160.5t-161.5 -68.5
q-83 0 -156 62.5t-73 166.5zM1020 3498q0 94 68.5 161.5t160.5 67.5q91 0 160.5 -67.5t69.5 -161.5q0 -91 -70.5 -160t-159.5 -69q-94 0 -161.5 69.5t-67.5 159.5z" />
    <glyph glyph-name="degree" unicode="&#xb0;" horiz-adv-x="1376" 
d="M401 2621q0 -119 82.5 -202.5t204.5 -83.5q131 0 209 91t78 195q0 117 -86 202t-201 85q-105 0 -196 -78t-91 -209zM229 2621q0 190 133 324.5t326 134.5t326 -134.5t133 -324.5q0 -192 -135 -325t-324 -133t-324 133t-135 325z" />
    <glyph glyph-name="plusminus" unicode="&#xb1;" 
d="M1663 516h-229v1147h-1147v229h1147v1147h229v-1147h1147v-229h-1147v-1147zM287 0v229h2523v-229h-2523z" />
    <glyph glyph-name="twosuperior" unicode="&#xb2;" horiz-adv-x="1745" 
d="M201 3039h1401v-57h-74q-228 0 -296.5 -90t-68.5 -217v-2310q0 -127 68.5 -217.5t296.5 -90.5h74v-57h-1360v57h73q229 0 297 90.5t68 217.5v2310q0 127 -68 217t-297 90h-73zM692 3498q0 109 75.5 169t154.5 60q95 0 162 -68.5t67 -160.5t-67.5 -160.5t-161.5 -68.5
q-84 0 -157 62.5t-73 166.5z" />
    <glyph glyph-name="threesuperior" unicode="&#xb3;" horiz-adv-x="1204" 
d="M815 2130v-1729q0 -160 56 -252t259 -92h46v-57h-1090v57h45q203 0 259 92t56 252v1123q0 311 -163 311q-87 0 -144 -29l-20 54zM385 2810q0 94 69.5 161.5t159.5 67.5q91 0 160.5 -67.5t69.5 -161.5q0 -91 -70.5 -160.5t-159.5 -69.5q-94 0 -161.5 70t-67.5 160z" />
    <glyph glyph-name="acute" unicode="&#xb4;" horiz-adv-x="1954" 
d="M811 2253l246 672q77 180 196 180q100 0 167 -46t67 -130q0 -112 -66 -176l-499 -500h-111z" />
    <glyph glyph-name="mu" unicode="&#xb5;" horiz-adv-x="1704" 
d="M1704 1921h-889v-1520q0 -159 54.5 -251.5t256.5 -92.5h50v-57h-1090v57h49q144 0 212 50.5t83.5 119.5t15.5 174v1278q0 164 -58 254t-253 90h-49v58h1077q164 0 264 34t161.5 137.5t78.5 307.5h37v-639z" />
    <glyph glyph-name="paragraph" unicode="&#xb6;" horiz-adv-x="2359" 
d="M811 -774v2666q-242 0 -440.5 131t-198.5 443q0 239 156 406t483 167h1376v-147h-458v-3666h-230v3666h-459v-3666h-229z" />
    <glyph glyph-name="periodcentered" unicode="&#xb7;" horiz-adv-x="1180" 
d="M344 1573q0 113 80.5 181.5t165.5 68.5q86 0 166 -68.5t80 -181.5q0 -103 -72.5 -174.5t-173.5 -71.5t-173.5 71.5t-72.5 174.5z" />
    <glyph glyph-name="cedilla" unicode="&#xb8;" horiz-adv-x="2003" 
d="M381 2810q0 105 72.5 167t156.5 62q95 0 162.5 -69.5t67.5 -159.5t-68.5 -160t-161.5 -70q-82 0 -155.5 63t-73.5 167zM1221 2810q0 89 68 159t161 70q51 0 105 -27t89 -79t35 -123q0 -104 -73.5 -167t-155.5 -63q-91 0 -160 70.5t-69 159.5zM1794 1298h-1331
q0 -315 94.5 -543.5t250.5 -344t335 -115.5q217 0 393 145.5t258 370.5l66 -25q-56 -203 -166.5 -391t-289.5 -312t-421 -124q-270 0 -460.5 159.5t-285 416t-94.5 542.5q0 279 110.5 519.5t312.5 383t466 142.5q252 0 424 -119t255 -307.5t83 -397.5zM475 1438h868
q0 202 -114 361t-320 159q-207 0 -312 -160t-122 -360z" />
    <glyph glyph-name="onesuperior" unicode="&#xb9;" horiz-adv-x="4731" 
d="M1077 3039l1585 -2191v1618q0 365 171.5 510t373.5 145q113 0 200 -51t87 -170q0 -82 -53 -145.5t-176 -63.5q-78 0 -148 29q-100 41 -127 41q-54 0 -92.5 -49.5t-38.5 -143.5v-2621h-86l-1872 2564v-1913q0 -270 -89 -471t-378 -201q-147 0 -219 70.5t-72 167.5
q0 72 56.5 136.5t181.5 64.5q51 0 119 -33q47 -33 82 -33q81 0 102 64.5t21 197.5v2151q-146 247 -402 254v73h774zM3768 688q-195 0 -341 104.5t-224 286t-78 400.5q0 213 81.5 396t229 292.5t336.5 109.5q287 0 465 -225.5t178 -564.5q0 -215 -81.5 -397.5t-229 -292
t-336.5 -109.5zM3400 1532q0 -102 24 -257t112 -297t257 -142q340 0 340 622q0 339 -111 505.5t-291 166.5q-331 0 -331 -598zM3289 0v287h1020v-287h-1020z" />
    <glyph glyph-name="ordmasculine" unicode="&#xba;" horiz-adv-x="2097" 
d="M1810 1442h-61q-28 235 -183 394t-386 159q-227 0 -366 -127.5t-196 -314t-57 -377.5h922v-156h-922q2 -196 70.5 -393.5t216 -328t369.5 -130.5q207 0 377.5 105.5t277.5 267.5l82 -62q-118 -197 -258 -311t-287.5 -159.5t-310.5 -45.5q-276 0 -494 138t-339.5 391
t-121.5 581q0 291 123.5 530.5t352.5 379t528 139.5q147 0 234 -18t164.5 -45t113.5 -27q62 0 86 61h41z" />
    <glyph glyph-name="guillemotright" unicode="&#xbb;" horiz-adv-x="1970" 
d="M750 1962l1048 -918l-1048 -872l-66 61l635 811l-635 857zM221 1802l762 -758l-762 -753l-49 45l393 708l-393 705z" />
    <glyph glyph-name="onequarter" unicode="&#xbc;" 
d="M1303 2445q0 109 73.5 177.5t171.5 68.5q104 0 175 -72t71 -174q0 -110 -80 -180t-166 -70q-85 0 -165 70t-80 180zM201 1462v230h2695v-230h-2695zM1303 700q0 104 71 175t174 71q106 0 176 -71t70 -175q0 -103 -71 -174t-175 -71q-103 0 -174 72t-71 173z" />
    <glyph glyph-name="onehalf" unicode="&#xbd;" horiz-adv-x="3101" 
d="M2404 2585l160 -160l-852 -852l852 -852l-160 -164l-852 852l-852 -852l-163 164l852 852l-852 852l163 160l852 -852z" />
    <glyph glyph-name="threequarters" unicode="&#xbe;" horiz-adv-x="3543" 
d="M344 205q0 113 80.5 181.5t165.5 68.5q86 0 166 -68.5t80 -181.5q0 -103 -72.5 -174.5t-173.5 -71.5t-173.5 71.5t-72.5 174.5zM1524 205q0 64 36 122t95 93t119 35q85 0 165 -68.5t80 -181.5q0 -105 -71.5 -175.5t-173.5 -70.5q-101 0 -175.5 73t-74.5 173zM2707 205
q0 113 80.5 181.5t165.5 68.5q86 0 166 -68.5t80 -181.5q0 -103 -72.5 -174.5t-173.5 -71.5t-173.5 71.5t-72.5 174.5z" />
    <glyph glyph-name="questiondown" unicode="&#xbf;" horiz-adv-x="1233" 
d="M815 2130v-1729q0 -159 58 -251.5t278 -92.5h53v-57h-1118v57h49q144 0 212 50.5t83.5 119.5t15.5 174v1123q0 311 -163 311q-87 0 -144 -29l-20 54zM20 2810q0 105 73 167t157 62t154.5 -62t70.5 -167t-71.5 -167.5t-153.5 -62.5t-156 63t-74 167zM754 2810
q0 86 66 157.5t163 71.5t163 -68.5t66 -160.5t-66.5 -161t-162.5 -69q-92 0 -160.5 69.5t-68.5 160.5z" />
    <glyph glyph-name="Agrave" unicode="&#xc0;" horiz-adv-x="2966" 
d="M-86 0v57q127 16 216.5 114.5t176.5 299.5l1155 2609h41l1159 -2609q81 -176 119.5 -241.5t114 -111t213.5 -61.5v-57h-1217v57q181 30 244.5 74t63.5 111q0 87 -33 172l-254 581h-1143l-250 -577q-49 -118 -49 -168q0 -105 100.5 -149t210.5 -44v-57h-868zM1343 2314
l-495 -1134h995z" />
    <glyph glyph-name="Aacute" unicode="&#xc1;" horiz-adv-x="2863" 
d="M2376 3039l57 -696h-57q-13 190 -124.5 340.5t-383.5 150.5h-746v-1093q177 28 389 28q428 0 692.5 -129.5t376 -330.5t111.5 -428q0 -205 -88 -402t-345 -338t-722 -141h-1335v57h73q229 0 297 90.5t68 217.5v2310q0 127 -68 217t-297 90h-73v57h2175zM1122 1556v-1331
q162 -53 328 -53q230 0 402 91.5t262 246.5t90 338q0 190 -80.5 359t-259 275.5t-451.5 106.5q-132 0 -291 -33z" />
    <glyph glyph-name="Acircumflex" unicode="&#xc2;" horiz-adv-x="2925" 
d="M201 3039h1265q274 0 510 -41.5t424.5 -210t188.5 -506.5q0 -166 -69.5 -316t-203.5 -250t-317 -122v-24q303 -22 514 -216.5t211 -508.5q0 -155 -59.5 -302.5t-188 -270.5t-336.5 -197t-493 -74h-1446v57h73q229 0 297 90.5t68 217.5v2310q0 127 -68 217t-297 90h-73v57
zM1122 1499v-1274q170 -53 365 -53q212 0 377.5 81t258.5 230t93 348q0 113 -51 263t-240 281.5t-557 131.5q-160 0 -246 -8zM1122 2855v-1176q222 -24 279 -24q255 0 412 96.5t224.5 246t67.5 316.5q0 177 -99.5 303.5t-274 192t-383.5 65.5q-103 0 -226 -20z" />
    <glyph glyph-name="Atilde" unicode="&#xc3;" horiz-adv-x="2556" 
d="M2490 3039l37 -696h-57q-61 491 -508 491h-840v-2469q0 -127 68.5 -217.5t296.5 -90.5h74v-57h-1360v57h73q229 0 297 90.5t68 217.5v2310q0 127 -68 217t-297 90h-73v57h2289z" />
    <glyph glyph-name="Adieresis" unicode="&#xc4;" horiz-adv-x="3060" 
d="M455 3039h2461v-57h-73q-191 0 -278 -74t-87 -233v-2282q0 -116 67.5 -162.5t202.5 -46.5q46 0 127 9l33 -938h-57q-54 319 -177 482.5t-289 213t-411 49.5h-1143q-116 0 -236.5 -22t-249 -95.5t-224.5 -226t-121 -401.5h-57l61 938q281 7 457.5 271.5t262.5 636.5
t112 683t32 579v267q-5 126 -33.5 198t-117 113t-262.5 41v57zM1995 2834h-951v-462q0 -1572 -585 -2167h1536v2629z" />
    <glyph glyph-name="Aring" unicode="&#xc5;" horiz-adv-x="2892" 
d="M2515 3039l37 -631l-62 -8q-64 275 -189 354.5t-343 79.5h-836v-1138h779q154 0 245.5 85.5t94.5 364.5h57v-1061h-57q-8 249 -96 337.5t-244 88.5h-779v-1306h836q335 0 513 131t282 438l53 -16l-221 -758h-2384v57h73q229 0 297 90.5t68 217.5v2310q0 127 -68 217
t-297 90h-73v57h2314z" />
    <glyph glyph-name="AE" unicode="&#xc6;" horiz-adv-x="4190" 
d="M78 3039h950v-57h-61q-168 0 -168 -103q0 -33 36.5 -102t150 -211.5t333 -376.5t565.5 -575v1061q0 160 -86.5 233.5t-277.5 73.5h-74v57h1360v-57h-74q-228 0 -296.5 -90t-68.5 -217v-1061q245 244 652 672q434 467 434 593q0 103 -168 103h-66v57h951v-57
q-140 -13 -215 -60t-211 -169q-55 -51 -323 -319l-697 -697l971 -1258q149 -194 281.5 -294.5t299.5 -127.5v-57h-1110v57q62 0 109 35.5t47 79.5q0 109 -78 209l-877 1175v-1191q0 -127 68.5 -217.5t296.5 -90.5h74v-57h-1360v57h74q190 0 277 74t87 234v1191l-876 -1175
q-78 -107 -78 -209q0 -52 46.5 -83.5t104.5 -31.5v-57h-1110v57q148 21 286.5 116t299.5 306l971 1258q-93 88 -301.5 298t-399.5 403.5t-245 244.5q-143 133 -190 173.5t-126.5 78t-187.5 47.5v57z" />
    <glyph glyph-name="Ccedilla" unicode="&#xc7;" horiz-adv-x="2445" 
d="M385 2236l25 820h57q9 -127 143 -127q35 0 70 8.5t90.5 30.5t97.5 38q222 74 430 74q255 0 444 -90.5t288.5 -244.5t99.5 -337q0 -220 -97.5 -377.5t-246.5 -248t-307 -123.5v-21q187 -18 362.5 -110t289.5 -272t114 -437q0 -194 -81 -354t-226 -273.5t-333.5 -173
t-396.5 -59.5q-422 0 -667.5 208t-368.5 464l107 57q110 -222 313.5 -373t484.5 -151q220 0 376 95t234 252t78 337q0 194 -78 354t-234 255t-376 95q-7 0 -129 -4t-133 -4v164q45 -4 131 -4q742 0 742 647q0 155 -70 272.5t-201.5 182.5t-306.5 65q-241 0 -388 -105
t-207.5 -247t-72.5 -283h-57z" />
    <glyph glyph-name="Egrave" unicode="&#xc8;" horiz-adv-x="3629" 
d="M201 3039h1360v-57h-74q-228 0 -296.5 -90t-68.5 -217v-1897l1442 1848v49q0 127 -68 217t-296 90h-74v57h1360v-57h-74q-228 0 -296.5 -90t-68.5 -217v-2310q0 -127 68.5 -217.5t296.5 -90.5h74v-57h-1360v57h74q228 0 296 90.5t68 217.5v1925l-1442 -1844v-81
q0 -127 68.5 -217.5t296.5 -90.5h74v-57h-1360v57h73q229 0 297 90.5t68 217.5v2310q0 127 -68 217t-297 90h-73v57z" />
    <glyph glyph-name="Eacute" unicode="&#xc9;" horiz-adv-x="3633" 
d="M201 3039h1364v-57h-74q-225 0 -297 -88t-72 -219v-1897l1446 1848v49q0 127 -68 217t-296 90h-74v57h1360v-57h-74q-228 0 -296 -86.5t-68 -220.5v-2310q0 -134 68 -221t296 -87h74v-57h-1360v57h74q228 0 296 90.5t68 217.5v1925l-1446 -1844v-81q0 -131 72 -219.5
t297 -88.5h74v-57h-1364v57h73q223 0 294 88.5t71 219.5v2310q0 131 -71 219t-294 88h-73v57zM1847 3342q97 0 198 44.5t101 107.5q0 20 -16 86q-4 19 -10 40.5t-6 41.5q0 76 50 138.5t146 62.5q102 0 157.5 -63t55.5 -146q0 -99 -72.5 -201.5t-224 -170t-371.5 -67.5
q-217 0 -373 64.5t-233.5 165.5t-77.5 209q0 83 53 146t160 63q61 0 127 -38.5t66 -162.5q0 -34 -5.5 -54.5t-14 -43t-9.5 -25.5v-45q16 -67 107 -109.5t192 -42.5z" />
    <glyph glyph-name="Ecircumflex" unicode="&#xca;" horiz-adv-x="3326" 
d="M201 3039h1364v-57h-78q-226 0 -295.5 -88.5t-69.5 -218.5v-2310q0 -129 69.5 -218.5t295.5 -89.5h78v-57h-1364v57h73q189 0 277 74.5t88 233.5v2310q0 159 -87 233t-278 74h-73v57zM2028 3039h1044v-57q-170 -20 -312 -100.5t-272 -207t-342.5 -365.5t-343.5 -376
l-213 -221l1004 -1098q254 -280 435.5 -407.5t383.5 -149.5v-57h-1360v57q54 5 101 9.5t80.5 14.5t55 36t21.5 71q0 35 -15.5 63.5t-39.5 54t-51 54.5l-1082 1221q100 80 294 267t388 394t325.5 379t131.5 242q0 77 -66 98t-167 21v57z" />
    <glyph glyph-name="Edieresis" unicode="&#xcb;" horiz-adv-x="3011" 
d="M1946 2834h-881v-888v-222q0 -535 -43.5 -899t-212.5 -615t-510 -251q-178 0 -267 81t-89 189q0 87 57 158.5t156 71.5q80 0 196 -78q16 -11 47 -32.5t58.5 -33.5t54.5 -12q149 0 257 255.5t108 940.5v1188q0 295 -398 295v57h2388v-57h-74q-228 0 -296 -90t-68 -217
v-2310q0 -127 68 -217.5t296 -90.5h74v-57h-1360v57h74q228 0 296.5 90.5t68.5 217.5v2469z" />
    <glyph glyph-name="Igrave" unicode="&#xcc;" horiz-adv-x="4235" 
d="M1122 3039l1028 -2281l1024 2281h918v-57h-74q-191 0 -277.5 -74t-86.5 -233v-2310q0 -159 87 -233.5t277 -74.5h74v-57h-1364v57h78q227 0 295.5 89.5t68.5 218.5v2195l-1151 -2560h-37l-1142 2568v-2203q0 -129 68.5 -218.5t295.5 -89.5h78v-57h-1081v57h73
q229 0 297 90.5t68 217.5v2310q0 127 -68 217t-297 90h-73v57h921z" />
    <glyph glyph-name="Iacute" unicode="&#xcd;" horiz-adv-x="3584" 
d="M1122 1679h1397v996q0 127 -68 217t-297 90h-73v57h1360v-57h-74q-228 0 -296.5 -90t-68.5 -217v-2310q0 -127 68.5 -217.5t296.5 -90.5h74v-57h-1360v57h73q229 0 297 90.5t68 217.5v1110h-1397v-1110q0 -134 69 -221t296 -87h74v-57h-1360v57h73q229 0 297 90.5
t68 217.5v2310q0 127 -68 217t-297 90h-73v57h1360v-57h-74q-227 0 -296 -86.5t-69 -220.5v-996z" />
    <glyph glyph-name="Icircumflex" unicode="&#xce;" horiz-adv-x="3314" 
d="M1642 -41q-386 0 -711.5 205t-513.5 565t-188 803q0 470 213 823t560 539t727 186q293 0 551.5 -114.5t452 -324.5t301.5 -501t108 -633q0 -305 -102.5 -583t-300.5 -497.5t-477 -343.5t-620 -124zM1667 135q190 0 361 87t303 261t207 433t75 587q0 477 -133 793.5
t-341 462t-435 145.5q-153 0 -315.5 -70.5t-306 -228.5t-234 -426t-90.5 -643q0 -424 117.5 -743t324.5 -488.5t467 -169.5z" />
    <glyph glyph-name="Idieresis" unicode="&#xcf;" horiz-adv-x="3592" 
d="M201 3039h3248v-57h-74q-225 0 -297 -88t-72 -219v-2310q0 -131 72 -219.5t297 -88.5h74v-57h-1364v57h74q228 0 296 90.5t68 217.5v2469h-1401v-2469q0 -134 69 -221t296 -87h74v-57h-1360v57h73q229 0 297 90.5t68 217.5v2310q0 127 -68 217t-297 90h-73v57z" />
    <glyph glyph-name="Eth" unicode="&#xd0;" horiz-adv-x="2707" 
d="M201 3039h1216q1204 0 1204 -807q0 -262 -133 -462t-367 -307t-524 -107q-154 0 -475 82v-1073q0 -127 68.5 -217.5t296.5 -90.5h74v-57h-1360v57h73q189 0 277 74.5t88 233.5v2310q0 159 -87 233t-278 74h-73v57zM1122 2839v-1246q160 -57 357 -57q267 0 405.5 133.5
t175.5 277.5t37 232q0 406 -223 543t-481 137q-168 0 -271 -20z" />
    <glyph glyph-name="Ntilde" unicode="&#xd1;" horiz-adv-x="3178" 
d="M2896 3056l49 -967l-57 -8q-48 213 -169.5 400.5t-333 307t-505.5 119.5q-230 0 -432 -85t-357 -254.5t-244 -429t-89 -591.5q0 -333 91.5 -591t255.5 -429t379 -255.5t458 -84.5q574 0 1028 545l94 -86q-502 -688 -1249 -688q-339 0 -631.5 124t-507 344t-331 505.5
t-116.5 603.5q0 351 129 639t356.5 491t517.5 308.5t611 105.5q337 0 668 -131q144 -53 192 -53q127 0 144 160h49z" />
    <glyph glyph-name="Ograve" unicode="&#xd2;" horiz-adv-x="2777" 
d="M123 3039h2589l36 -688h-57q-29 483 -549 483h-483v-2469q0 -131 71.5 -219.5t292.5 -88.5h74v-57h-1360v57h74q189 0 277 74.5t88 233.5v2469h-484q-520 0 -549 -483h-57z" />
    <glyph glyph-name="Oacute" unicode="&#xd3;" horiz-adv-x="2986" 
d="M1749 1130l672 1475q57 126 57 213q0 76 -80.5 120t-218.5 44v57h922v-57q-185 -8 -290.5 -133t-184.5 -293l-889 -1917q-82 -174 -186 -321t-274 -253t-400 -106q-206 0 -295.5 82t-89.5 192q0 83 67 142t178 59q110 0 221 -82q75 -52 102.5 -67t82.5 -15q227 0 352 328
l-983 1995q-88 176 -199.5 282.5t-283.5 106.5v57h1228v-57q-134 0 -210 -28t-76 -111q0 -102 28 -164z" />
    <glyph glyph-name="Ocircumflex" unicode="&#xd4;" horiz-adv-x="3826" 
d="M1270 3154h1347v-57h-77q-357 0 -357 -271v-61q539 -1 875.5 -169t480 -437.5t143.5 -593.5q0 -306 -130 -520.5t-345 -340t-480.5 -181.5t-543.5 -56v-102q0 -308 361 -308h73v-57h-1347v57h73q220 0 288.5 88t68.5 220v102q-278 0 -543.5 56t-480 182t-345 340.5
t-130.5 519.5q0 385 168 632t413 367.5t479 159.5t439 41v61q0 271 -357 271h-73v57zM1700 635v1962q-242 0 -464.5 -106.5t-364.5 -340t-142 -589.5q0 -342 146.5 -549.5t367 -292t457.5 -84.5zM2183 2597v-1962q204 0 420.5 67t383.5 274t167 585q0 358 -140.5 590.5
t-362 339t-468.5 106.5z" />
    <glyph glyph-name="Otilde" unicode="&#xd5;" horiz-adv-x="3084" 
d="M57 3039h1336v-57q-142 0 -222.5 -26.5t-80.5 -116.5q0 -68 57 -152l528 -819l578 753q98 129 98 218q0 143 -274 143v57h934v-57q-180 -25 -279 -103.5t-242 -265.5l-700 -921l786 -1209q260 -396 537 -426v-57h-1241v57q152 4 225.5 22t73.5 93q0 89 -57 176l-627 959
l-762 -996q-45 -58 -45 -123q0 -131 283 -131v-57h-934v57q153 12 245.5 84t225.5 240l880 1110l-729 1094q-243 375 -594 397v57z" />
    <glyph glyph-name="Odieresis" unicode="&#xd6;" horiz-adv-x="3514" 
d="M201 3039h1360v-57h-74q-228 0 -296.5 -90t-68.5 -217v-2470h1323v2494q0 283 -364 283h-74v57h1364v-57h-78q-227 0 -295.5 -88.5t-68.5 -218.5v-2261q0 -133 41 -167t122 -34h234l29 -958h-58q-11 323 -127.5 488t-254 211t-265.5 46h-2449v57h73q229 0 297 90.5
t68 217.5v2310q0 127 -68 217t-297 90h-73v57z" />
    <glyph glyph-name="multiply" unicode="&#xd7;" 
d="M0 3039h1360v-57h-74q-228 0 -296 -90t-68 -217v-643q0 -174 27 -301t144.5 -224.5t364.5 -97.5q196 0 574 98v1168q0 127 -68.5 217t-296.5 90h-74v57h1360v-57h-74q-228 0 -296 -90t-68 -217v-2310q0 -127 68 -217.5t296 -90.5h74v-57h-1360v57h74q228 0 296.5 90.5
t68.5 217.5v966q-408 -123 -775 -123q-266 0 -435.5 78.5t-250.5 201.5t-107 259t-26 285v643q0 127 -68 217t-296 90h-74v57z" />
    <glyph glyph-name="Oslash" unicode="&#xd8;" horiz-adv-x="4932" 
d="M4350 365q0 -127 68 -217.5t296 -90.5h74v-57h-4587v57h73q229 0 297 90.5t68 217.5v2310q0 127 -68 217t-297 90h-73v57h1360v-57h-74q-228 0 -296.5 -90t-68.5 -217v-2470h1131v2470q0 127 -68.5 217t-296.5 90h-73v57h1359v-57h-73q-228 0 -296.5 -90t-68.5 -217
v-2470h1131v2470q0 127 -68.5 217t-296.5 90h-74v57h1360v-57h-74q-228 0 -296 -90t-68 -217v-2310z" />
    <glyph glyph-name="Ugrave" unicode="&#xd9;" horiz-adv-x="4932" 
d="M4747 205l25 -950h-58q-11 323 -125.5 488.5t-251.5 211t-270 45.5h-3866v57h73q227 0 296 89t69 219v2310q0 130 -69 218.5t-296 88.5h-73v57h1360v-57h-78q-361 0 -361 -307v-2470h1131v2470q0 127 -68.5 217t-296.5 90h-73v57h1363v-57h-73q-225 0 -297 -88t-72 -219
v-2470h1131v2470q0 159 -87 233t-278 74h-74v57h1360v-57h-74q-228 0 -296 -90t-68 -217v-2261q0 -102 29.5 -155.5t134.5 -53.5h233z" />
    <glyph glyph-name="Uacute" unicode="&#xda;" horiz-adv-x="3133" 
d="M967 2843h-291q-151 0 -259 -25.5t-203.5 -136.5t-135.5 -342h-49l49 700h1810v-57h-73q-229 0 -297 -90t-68 -217v-922q230 25 410 25q428 0 694 -130t379.5 -333.5t113.5 -433.5q0 -204 -91 -401t-354.5 -338.5t-737.5 -141.5h-1336v57h74q228 0 296.5 90.5t68.5 217.5
v2478zM1450 1573v-1348q159 -53 328 -53q241 0 418 92t270.5 248t93.5 336q0 212 -89.5 385.5t-270 275t-439.5 101.5q-123 0 -311 -37z" />
    <glyph glyph-name="Ucircumflex" unicode="&#xdb;" horiz-adv-x="4137" 
d="M201 3039h1360v-57h-74q-228 0 -296.5 -90t-68.5 -217v-922q225 25 447 25q404 0 662 -127.5t373.5 -332.5t115.5 -437q0 -206 -90.5 -402t-354 -337.5t-739.5 -141.5h-1335v57h73q229 0 297 90.5t68 217.5v2310q0 127 -68 217t-297 90h-73v57zM1122 1573v-1348
q159 -53 328 -53q240 0 418 92.5t271 248t93 335.5q0 136 -40 268t-131 245t-243 181t-368 68q-137 0 -328 -37zM2634 3039h1360v-57h-74q-228 0 -296.5 -90t-68.5 -217v-2310q0 -127 68.5 -217.5t296.5 -90.5h74v-57h-1360v57h73q229 0 297 90.5t68 217.5v2310
q0 127 -68 217t-297 90h-73v57z" />
    <glyph glyph-name="Udieresis" unicode="&#xdc;" horiz-adv-x="2806" 
d="M1561 3039v-57h-74q-228 0 -296.5 -90t-68.5 -217v-922q237 29 414 29q377 0 644.5 -116t403.5 -322t136 -463q0 -206 -90.5 -402t-354 -337.5t-739.5 -141.5h-1335v57h73q229 0 297 90.5t68 217.5v2310q0 127 -68 217t-297 90h-73v57h1360zM1122 1573v-1348
q159 -53 328 -53q240 0 418 92.5t271 248t93 335.5q0 315 -200 538.5t-619 223.5q-124 0 -291 -37z" />
    <glyph glyph-name="Yacute" unicode="&#xdd;" horiz-adv-x="3109" 
d="M360 2032l91 1048h57q0 -82 47 -133t129 -51t262 74q275 110 545 110q238 0 488.5 -89.5t469 -281.5t353.5 -499t135 -723q0 -468 -196.5 -815t-534 -530t-748.5 -183q-182 0 -358.5 39t-345 129.5t-318 247t-264.5 383.5l94 61q168 -291 452 -481.5t671 -190.5
q356 0 584 193.5t330.5 490.5t104.5 615h-913q-212 0 -294.5 -106.5t-82.5 -327.5h-57v1077h57q0 -281 98 -366t287 -85h897q-4 289 -86.5 526.5t-219 403t-306 253t-346.5 87.5q-782 0 -1024 -876h-58z" />
    <glyph glyph-name="Thorn" unicode="&#xde;" horiz-adv-x="4747" 
d="M1122 1647h545q20 337 150 606t341.5 454t470 279t533.5 94q292 0 550.5 -117.5t452 -331t302 -502.5t108.5 -622q0 -468 -211.5 -821.5t-558 -540t-729.5 -186.5q-337 0 -662 182.5t-533 525.5t-214 795h-545v-1097q0 -134 69 -221t296 -87h74v-57h-1360v57h73
q229 0 297 90.5t68 217.5v2310q0 127 -68 217t-297 90h-73v57h1360v-57h-74q-227 0 -296 -86.5t-69 -220.5v-1028zM3101 135q190 0 361 87t303.5 260.5t207 431.5t74.5 589q0 317 -68.5 577t-192 444.5t-289.5 282t-359 97.5q-212 0 -429 -130.5t-365.5 -439.5t-148.5 -798
q0 -270 57 -522.5t171.5 -452t285.5 -313t392 -113.5z" />
    <glyph glyph-name="germandbls" unicode="&#xdf;" horiz-adv-x="3039" 
d="M2896 3039v-57h-74q-228 0 -296 -90t-68 -217v-2310q0 -127 68 -217.5t296 -90.5h74v-57h-1360v57h74q228 0 296 90.5t68 217.5v1019h-102q-131 0 -219.5 -37t-173.5 -163l-795 -1184h-741v57q158 7 262.5 94.5t261.5 315.5l381 553q110 162 213.5 262t253.5 131v25
q-231 5 -426 95.5t-312.5 263.5t-117.5 407q0 525 389 680t823 155h1225zM1974 1556v1307q-140 33 -307 33q-93 0 -244.5 -39.5t-295.5 -195t-144 -461.5q0 -226 105 -376.5t277.5 -221t375.5 -70.5q116 0 233 24z" />
    <glyph glyph-name="agrave" unicode="&#xe0;" horiz-adv-x="2028" 
d="M1982 332l46 -45q-268 -328 -492 -328q-103 0 -174.5 96.5t-71.5 263.5q-370 -360 -708 -360q-130 0 -230 71.5t-154.5 186t-54.5 234.5q0 230 154 388.5t380 258t613 229.5v270q0 193 -104.5 297.5t-284.5 104.5q-149 0 -236 -83t-87 -200q0 -42 6 -67t6 -68
q0 -93 -58.5 -136.5t-130.5 -43.5q-77 0 -124.5 60t-47.5 145q0 152 109 270.5t284 182t361 63.5q676 0 676 -545v-1249q0 -41 29.5 -74t80.5 -33q111 0 213 111zM1290 426v774q-264 -96 -411 -162t-263 -184t-116 -285q0 -143 81 -255.5t259 -112.5q60 0 176.5 47
t273.5 178z" />
    <glyph glyph-name="aacute" unicode="&#xe1;" horiz-adv-x="2290" 
d="M2019 3068h62q-41 -286 -244.5 -372.5t-460.5 -86.5q-27 0 -98 2t-102 2q-289 0 -475.5 -148.5t-269.5 -379.5t-83 -488q0 -16 2 -48t2 -46h21q134 344 361 461t425 117q319 0 543 -149.5t334 -386t110 -492.5q0 -252 -109.5 -506t-329 -421t-527.5 -167
q-424 0 -722 297.5t-298 1062.5q0 410 74 764.5t309 608t674 253.5q200 0 299 -4q24 0 65 -2t57 -2q196 0 277.5 30t103.5 101zM1274 115q110 0 212 86t168 277t66 485q0 261 -80.5 482t-225 350.5t-320.5 129.5q-112 0 -227 -70t-198 -258.5t-83 -511.5q0 -294 97 -515
t255.5 -338t335.5 -117z" />
    <glyph glyph-name="acircumflex" unicode="&#xe2;" horiz-adv-x="2142" 
d="M86 2081h1044q295 0 535 -83.5t240 -355.5q0 -165 -82.5 -305t-282.5 -198v-21q145 -22 254.5 -90t171.5 -183t62 -263q0 -343 -282 -462.5t-714 -119.5h-946v57h45q203 0 259 92t56 252v1278q0 161 -56 252.5t-259 91.5h-45v58zM815 1049v-893q183 -29 254 -29
q172 0 299 58t194.5 164t67.5 249q0 193 -128 324t-404 131q-197 0 -283 -4zM815 1942v-766h234q176 0 335.5 71t159.5 301q0 186 -131.5 298t-368.5 112q-81 0 -229 -16z" />
    <glyph glyph-name="atilde" unicode="&#xe3;" horiz-adv-x="1778" 
d="M1704 2081l74 -631h-58q-35 283 -177.5 379t-354.5 96h-373v-1524q0 -160 56 -252t259 -92h46v-57h-1090v57h45q203 0 259 92t56 252v1278q0 161 -56 252.5t-259 91.5h-45v58h1618z" />
    <glyph glyph-name="adieresis" unicode="&#xe4;" horiz-adv-x="2208" 
d="M303 2081h1819v-58h-45q-205 0 -260.5 -91.5t-55.5 -252.5v-1360q0 -101 22.5 -132t96.5 -31h197l41 -672h-58q-49 516 -516 516h-1028q-121 0 -222 -32t-185 -146t-109 -338h-57l45 672h94q178 0 301 241t181.5 569t58.5 570q0 170 -14 268.5t-70 158.5t-174 60h-62v58z
M1393 156v1769h-602q-4 -399 -27 -673.5t-97.5 -554.5t-215.5 -541h942z" />
    <glyph glyph-name="aring" unicode="&#xe5;" horiz-adv-x="2003" 
d="M1790 1298h-1327q0 -286 82.5 -514t237.5 -358.5t360 -130.5q142 0 270.5 67.5t225.5 184.5t151 264l70 -25q-80 -243 -196.5 -427.5t-287.5 -292t-397 -107.5q-203 0 -360.5 93.5t-263 253t-159 359t-53.5 412.5q0 279 107.5 520t309.5 383t468 142q259 0 430.5 -119
t251.5 -307t80 -398zM471 1438h868q0 130 -46.5 249.5t-143 195t-240.5 75.5q-214 0 -314 -161.5t-124 -358.5z" />
    <glyph glyph-name="ae" unicode="&#xe6;" horiz-adv-x="3101" 
d="M1098 0v57h37q157 0 197 92.5t40 251.5v635h-20l-615 -790q-49 -67 -49 -115q0 -33 26.5 -53.5t59.5 -20.5h82v-57h-913v57q159 21 271 102t232 234l611 774l-504 578q-246 278 -537 278v58h840v-58h-41q-51 0 -95 -22t-44 -72q0 -77 61 -147l615 -705h20v627
q0 149 -42 234t-195 85h-37v58h905v-58h-37q-153 0 -195 -85t-42 -234v-627h24l610 705q62 69 62 147q0 51 -44 72.5t-95 21.5h-41v58h839v-58q-292 0 -536 -278l-504 -578l610 -774q119 -144 231.5 -230t272.5 -106v-57h-913v57h82q33 0 59.5 20.5t26.5 53.5q0 49 -50 115
l-610 790h-24v-635q0 -159 40 -251.5t197 -92.5h37v-57h-905z" />
    <glyph glyph-name="ccedilla" unicode="&#xe7;" horiz-adv-x="1839" 
d="M258 1450l33 664h49q0 -32 25.5 -53t44.5 -21q26 0 209.5 41t343.5 41q369 0 512 -149t143 -322q0 -183 -110 -317t-296 -175v-24q151 -18 268 -93.5t180.5 -196t63.5 -272.5q0 -181 -113.5 -321.5t-300 -216.5t-397.5 -76q-538 0 -827 508l82 57q114 -156 276.5 -266.5
t374.5 -110.5q151 0 262.5 62t170.5 167.5t59 229.5q0 198 -115.5 336.5t-335.5 138.5q-98 0 -147 -4v115h147q157 0 277 106.5t120 290.5q0 176 -84 265.5t-174 111t-155 21.5q-284 0 -393 -178t-136 -359h-57z" />
    <glyph glyph-name="egrave" unicode="&#xe8;" horiz-adv-x="2548" 
d="M86 2081h1032v-58h-41q-164 0 -213 -89.5t-49 -233.5v-1155l914 1237q-19 241 -259 241h-40v58h1032v-58h-45q-205 0 -260.5 -91.5t-55.5 -252.5v-1278q0 -160 55.5 -252t260.5 -92h45v-57h-1032v57h40q170 0 216.5 93.5t46.5 250.5v1139l-918 -1233q7 -250 262 -250h41
v-57h-1032v57h45q203 0 259 92t56 252v1278q0 161 -56 252.5t-259 91.5h-45v58z" />
    <glyph glyph-name="eacute" unicode="&#xe9;" horiz-adv-x="2548" 
d="M1270 2413q129 0 236.5 44t107.5 111q0 60 -17 103q-16 48 -16 77q0 63 40.5 113.5t111.5 50.5q57 0 110 -40t53 -136q0 -177 -169.5 -303.5t-448.5 -126.5q-276 0 -457.5 122t-181.5 308q0 95 54.5 135.5t113.5 40.5q64 0 105.5 -45t41.5 -119q0 -36 -13 -71t-15 -47
v-62q18 -67 119 -111t225 -44zM86 2081h1032v-58h-41q-164 0 -213 -89.5t-49 -233.5v-1155l918 1237q-4 102 -65 171.5t-198 69.5h-40v58h1032v-58h-45q-205 0 -260.5 -91.5t-55.5 -252.5v-1278q0 -160 55.5 -252t260.5 -92h45v-57h-1032v57h40q173 0 218 92.5t45 251.5
v1139l-918 -1233q7 -250 262 -250h41v-57h-1032v57h45q203 0 259 92t56 252v1278q0 161 -56 252.5t-259 91.5h-45v58z" />
    <glyph glyph-name="ecircumflex" unicode="&#xea;" horiz-adv-x="2363" 
d="M815 1081l787 713q73 65 73 123q0 106 -143 106h-53v58h872v-58q-147 -16 -244 -56.5t-211 -139.5l-753 -664l925 -909q173 -172 353 -197v-57h-946v57h45q131 0 131 74q0 45 -74 119l-741 758h-21v-607q0 -159 45 -251.5t217 -92.5h41v-57h-1032v57h45q203 0 259 92
t56 252v1278q0 161 -56 252.5t-259 91.5h-45v58h1032v-58h-41q-172 0 -217 -90t-45 -254v-598z" />
    <glyph glyph-name="edieresis" unicode="&#xeb;" horiz-adv-x="2253" 
d="M1438 1925h-615q4 -78 4 -262q0 -894 -114 -1274q-137 -438 -484 -438q-148 0 -217 61.5t-69 155.5q0 78 57 133t147 55q60 0 140 -49q76 -37 119 -37q270 0 270 1262q0 219 -34.5 324.5t-98 136t-178.5 30.5h-58v58h1860v-58h-45q-203 0 -259.5 -91.5t-56.5 -252.5
v-1278q0 -160 56.5 -252t259.5 -92h45v-57h-1032v57h41q165 0 213.5 95.5t48.5 248.5v1524z" />
    <glyph glyph-name="igrave" unicode="&#xec;" horiz-adv-x="2929" 
d="M2114 1671l-730 -1683h-69l-725 1675v-1262q0 -159 45 -251.5t217 -92.5h41v-57h-807v57h45q203 0 259 92t56 252v1278q0 161 -56 252.5t-259 91.5h-45v58h737l647 -1557l672 1557h701v-58h-45q-205 0 -260.5 -91.5t-55.5 -252.5v-1278q0 -160 55.5 -252t260.5 -92h45
v-57h-1033v57h41q171 0 217 93.5t46 250.5v1270z" />
    <glyph glyph-name="iacute" unicode="&#xed;" horiz-adv-x="2605" 
d="M86 2081h1032v-58h-41q-163 0 -212.5 -88t-49.5 -256v-508h975v508q0 173 -51.5 258.5t-214.5 85.5h-41v58h1036v-58h-45q-203 0 -259 -91.5t-56 -252.5v-1278q0 -160 56 -252t259 -92h45v-57h-1036v57h41q174 0 220 93.5t46 250.5v615h-975v-615q0 -159 45 -251.5
t217 -92.5h41v-57h-1032v57h45q203 0 259 92t56 252v1278q0 161 -56 252.5t-259 91.5h-45v58z" />
    <glyph glyph-name="icircumflex" unicode="&#xee;" horiz-adv-x="2318" 
d="M1159 -41q-260 0 -454.5 97t-319 258t-183.5 349.5t-59 372.5q0 216 74 414t210.5 349.5t323 237t408.5 85.5q303 0 534 -142t356.5 -389.5t125.5 -550.5q0 -328 -146.5 -574.5t-382 -376.5t-487.5 -130zM569 1065q0 -214 77 -435t228 -368t355 -147q520 0 520 950
q0 208 -81.5 418t-235.5 346.5t-355 136.5q-277 0 -392.5 -265t-115.5 -636z" />
    <glyph glyph-name="idieresis" unicode="&#xef;" horiz-adv-x="2548" 
d="M86 2081h2376v-58h-45q-205 0 -260.5 -91.5t-55.5 -252.5v-1278q0 -160 55.5 -252t260.5 -92h45v-57h-1037v57h41q173 0 220 93.5t47 250.5v1524h-918v-1524q0 -159 45 -251.5t217 -92.5h41v-57h-1032v57h45q203 0 259 92t56 252v1278q0 161 -56 252.5t-259 91.5h-45v58z
" />
    <glyph glyph-name="eth" unicode="&#xf0;" horiz-adv-x="2306" 
d="M729 2130v-406q164 201 318.5 299.5t353.5 98.5q321 0 541.5 -275t220.5 -770q0 -303 -134 -561t-356 -407.5t-469 -149.5q-257 0 -475 152v-484q0 -163 57.5 -253.5t278.5 -90.5h82v-57h-1147v57h45q203 0 259 92t56 252v1897q0 148 -33 229.5t-130 81.5q-82 0 -144 -29
l-20 54zM729 1548v-1007q0 -221 152.5 -328t322.5 -107q143 0 270.5 98t205 290.5t77.5 451.5q0 230 -48.5 399.5t-132 274t-192 154t-233.5 49.5q-114 0 -225.5 -74.5t-196.5 -200.5z" />
    <glyph glyph-name="ntilde" unicode="&#xf1;" horiz-adv-x="2044" 
d="M1819 786l82 -24q-109 -411 -328.5 -607t-536.5 -196q-243 0 -447.5 132t-325 379t-120.5 574q0 215 69.5 411t200 346.5t311.5 235.5t402 85q175 0 332.5 -58.5t252.5 -161t95 -227.5q0 -119 -58 -172t-134 -53q-196 0 -225 225q-19 144 -80.5 225.5t-231.5 81.5
q-152 0 -281 -91.5t-204.5 -274t-75.5 -436.5q0 -273 88.5 -470.5t245.5 -298t358 -100.5q150 0 275 65t211 174t125 236z" />
    <glyph glyph-name="ograve" unicode="&#xf2;" horiz-adv-x="1917" 
d="M86 2081h1745l57 -631h-57q-49 295 -184 385t-332 90h-172v-1524q0 -160 56 -252t259 -92h45v-57h-1089v57h45q203 0 259 92t56 252v1524h-172q-196 0 -331.5 -90t-184.5 -385h-57z" />
    <glyph glyph-name="oacute" unicode="&#xf3;" horiz-adv-x="2060" 
d="M-16 2081h921v-58q-237 0 -237 -151q0 -41 24 -103l508 -1261l406 1130q41 128 41 222q0 84 -68 123.5t-125 39.5h-61v58h725v-58q-127 -8 -192 -95.5t-116 -223.5l-680 -1831q-114 -311 -277 -483t-411 -172q-134 0 -208 65t-74 156q0 83 68 146t169 63q64 0 156 -41
q88 -41 147 -41q110 0 186 123t142 307l-745 1773q-35 90 -111.5 172t-187.5 82v58z" />
    <glyph glyph-name="ocircumflex" unicode="&#xf4;" horiz-adv-x="3129" 
d="M1749 3097v-1110q214 135 410 135q220 0 410 -130.5t303.5 -378.5t113.5 -581q0 -289 -113.5 -536t-311.5 -392t-435 -145q-193 0 -377 135v-467q0 -103 19 -173.5t93.5 -120.5t223.5 -50h82v-57h-1204v57h81q215 0 275.5 93t60.5 251v467q-179 -135 -381 -135
q-236 0 -432.5 144.5t-310 392t-113.5 536.5q0 333 114 580.5t304 378.5t410 131q194 0 409 -135v528q0 123 -33 194.5t-135 71.5q-92 0 -188 -41l-16 53zM1380 254v1544q-172 184 -360 184q-207 0 -329 -245t-122 -725q0 -322 70 -527.5t181.5 -296t240.5 -90.5
q191 0 319 156zM1749 1798v-1544q129 -156 315 -156q112 0 224.5 74.5t192 279t79.5 560.5q0 970 -451 970q-176 0 -360 -184z" />
    <glyph glyph-name="otilde" unicode="&#xf5;" horiz-adv-x="2048" 
d="M29 2081h921v-58h-32q-83 0 -117.5 -34.5t-34.5 -71.5q0 -52 37 -115l315 -520l348 520q41 58 41 115q0 106 -151 106h-49v58h667v-58q-185 -13 -323 -221l-434 -643l495 -827q141 -230 365 -275v-57h-930v57q101 10 151 32t50 87q0 43 -45 107l-365 602l-389 -574
q-62 -79 -62 -135q0 -48 38.5 -83.5t113.5 -35.5h49v-57h-688v57q128 21 214.5 89.5t170.5 193.5l463 676l-471 770q-145 237 -307 237h-41v58z" />
    <glyph glyph-name="odieresis" unicode="&#xf6;" horiz-adv-x="2544" 
d="M86 2081h1032v-58h-41q-172 0 -217 -90t-45 -254v-1523h914v1523q0 168 -49.5 256t-213.5 88h-41v58h1033v-58h-45q-205 0 -260.5 -91.5t-55.5 -252.5v-1376q0 -86 30.5 -125t104.5 -39h168l54 -655h-58q-17 195 -127.5 355.5t-363.5 160.5h-1819v57h45q203 0 259 92
t56 252v1278q0 161 -56 252.5t-259 91.5h-45v58z" />
    <glyph glyph-name="divide" unicode="&#xf7;" horiz-adv-x="2265" 
d="M0 2081h954v-58h-36q-173 0 -218 -90t-45 -254v-270q0 -442 381 -442q185 0 414 69v643q0 156 -45.5 250t-196.5 94h-32v58h1003v-58h-45q-203 0 -259 -91.5t-56 -252.5v-1278q0 -160 56 -252t259 -92h45v-57h-1118v57h53q219 0 277.5 92.5t58.5 251.5v517
q-312 -87 -557 -87q-211 0 -335.5 51t-182 134.5t-73 175.5t-15.5 217v270q0 173 -51.5 258.5t-215.5 85.5h-20v58z" />
    <glyph glyph-name="oslash" unicode="&#xf8;" horiz-adv-x="3604" 
d="M3158 401q0 -160 56 -252t259 -92h45v-57h-3432v57h45q203 0 259 92t56 252v1278q0 161 -56 252.5t-259 91.5h-45v58h979v-58h-33q-134 0 -175.5 -82.5t-41.5 -261.5v-1523h803v1523q0 164 -44 254t-218 90h-41v58h975v-58h-41q-171 0 -216.5 -96t-45.5 -248v-1523h802
v1523q0 166 -37 255t-176 89h-32v58h974v-58h-45q-203 0 -259 -91.5t-56 -252.5v-1278z" />
    <glyph glyph-name="ugrave" unicode="&#xf9;" horiz-adv-x="3604" 
d="M3461 156l53 -672h-57q-17 195 -127.5 355.5t-363.5 160.5h-2880v57h45q203 0 259 92t56 252v1278q0 161 -56 252.5t-259 91.5h-45v58h979v-58h-33q-134 0 -175.5 -82.5t-41.5 -261.5v-1523h803v1523q0 164 -44 254t-218 90h-41v58h975v-58h-41q-171 0 -216.5 -96
t-45.5 -248v-1523h802v1523q0 166 -37 255t-176 89h-32v58h974v-58h-45q-203 0 -259 -91.5t-56 -252.5v-1368q0 -155 135 -155h168z" />
    <glyph glyph-name="uacute" unicode="&#xfa;" horiz-adv-x="2294" 
d="M328 0v57h45q203 0 259 92t56 252v1524h-115q-205 0 -328 -87t-188 -388h-57l57 631h1360v-58h-45q-203 0 -259 -91.5t-56 -252.5v-487q177 20 315 20q303 0 496.5 -90t280.5 -227t87 -277q0 -139 -72.5 -279t-263.5 -239.5t-520 -99.5h-1052zM1057 1061v-877
q138 -32 246 -32q204 0 366 101.5t162 332.5q0 200 -138.5 343.5t-455.5 143.5q-100 0 -180 -12z" />
    <glyph glyph-name="ucircumflex" unicode="&#xfb;" horiz-adv-x="3113" 
d="M86 0v57h45q203 0 259 92t56 252v1278q0 161 -56 252.5t-259 91.5h-45v58h1090v-58h-46q-203 0 -259 -91.5t-56 -252.5v-487q185 20 324 20q296 0 490 -90t280 -226t86 -278q0 -139 -72.5 -279t-264.5 -239.5t-519 -99.5h-1053zM815 1061v-877q140 -32 246 -32
q204 0 366 101.5t162 332.5q0 200 -138.5 343.5t-455.5 143.5q-100 0 -180 -12zM1937 2081h1090v-58h-45q-203 0 -259.5 -91.5t-56.5 -252.5v-1278q0 -160 56.5 -252t259.5 -92h45v-57h-1090v57h45q204 0 260 92t56 252v1278q0 161 -56 252.5t-260 91.5h-45v58z" />
    <glyph glyph-name="udieresis" unicode="&#xfc;" horiz-adv-x="2052" 
d="M90 0l-4 57h45q203 0 259 92t56 252v1278q0 161 -56 252.5t-259 91.5h-45v58h1090v-58h-46q-203 0 -259 -91.5t-56 -252.5v-487q172 20 320 20q300 0 494 -90t280 -226t86 -278q0 -139 -72.5 -279t-264.5 -239.5t-519 -99.5h-1049zM815 1061v-877q140 -32 246 -32
q204 0 366 101.5t162 332.5q0 200 -138.5 343.5t-455.5 143.5q-100 0 -180 -12z" />
    <glyph glyph-name="yacute" unicode="&#xfd;" horiz-adv-x="2118" 
d="M270 2093h41q34 -61 99 -61q89 0 166 30.5t141 45t254 14.5q254 0 444.5 -94t314.5 -252t184 -349t60 -383q0 -317 -140.5 -565t-373.5 -384t-497 -136q-527 0 -848 516l78 62q119 -164 298.5 -266.5t385.5 -102.5q250 0 401.5 138t212.5 332t61 382h-864v156h864
q0 162 -44 345.5t-180.5 328.5t-389.5 145q-288 0 -445.5 -188t-193.5 -423h-57z" />
    <glyph glyph-name="thorn" unicode="&#xfe;" horiz-adv-x="3359" 
d="M86 2081h1032v-58h-41q-163 0 -212.5 -88t-49.5 -256v-508h381q23 248 155.5 467.5t355 351.5t497.5 132q294 0 524 -142.5t358.5 -391t128.5 -548.5q0 -303 -133 -550.5t-365 -389t-517 -141.5q-307 0 -533.5 140t-348.5 382.5t-130 534.5h-373v-615q0 -159 45 -251.5
t217 -92.5h41v-57h-1032v57h45q203 0 259 92t56 252v1278q0 161 -56 252.5t-259 91.5h-45v58zM1614 1065q0 -227 83 -447.5t233.5 -361.5t338.5 -141q520 0 520 950q0 208 -81.5 418t-233.5 346.5t-352 136.5q-508 0 -508 -901z" />
    <glyph glyph-name="ydieresis" unicode="&#xff;" horiz-adv-x="2236" 
d="M2150 2081v-58h-45q-203 0 -259 -91.5t-56 -252.5v-1278q0 -160 56 -252t259 -92h45v-57h-1089v57h45q203 0 259 92t56 252v549q-32 4 -86 4q-109 0 -174.5 -44.5t-140.5 -155.5l-520 -754h-529v57h37q135 0 246 160l348 504q118 168 275 201v24q-232 7 -419.5 138
t-187.5 403q0 375 259.5 484.5t535.5 109.5h1085zM1421 1077v856q-114 33 -278 33q-231 0 -363.5 -139.5t-132.5 -343.5q0 -174 131.5 -304t417.5 -130q104 0 225 28z" />
    <glyph glyph-name="emdash" unicode="&#x2013;" 
d="M201 1462v230h2695v-230h-2695z" />
    <glyph glyph-name="endash" unicode="&#x2014;" horiz-adv-x="3899" 
d="M3670 1204v-229h-3441v229h3441z" />
    <glyph glyph-name="quoteleft" unicode="&#x2018;" horiz-adv-x="1335" 
d="M971 3080l20 -78q-459 -147 -459 -532q0 -73 25 -143q77 61 168 61q104 0 168.5 -68t64.5 -182q0 -103 -77 -174.5t-205 -71.5q-160 0 -246 130.5t-86 324.5q0 542 627 733z" />
    <glyph glyph-name="quoteright" unicode="&#x2019;" horiz-adv-x="1335" 
d="M365 1892l-21 78q262 79 360.5 231t98.5 302q0 34 -29 143q-67 -61 -164 -61q-119 0 -178 72.5t-59 172.5q0 106 77.5 178t208.5 72q164 0 248 -128t84 -326q0 -356 -208.5 -517.5t-417.5 -216.5z" />
    <glyph glyph-name="quotedblleft" unicode="&#x201c;" horiz-adv-x="2269" 
d="M1905 3080l20 -78q-459 -147 -459 -532q0 -78 29 -143q74 61 164 61q106 0 169.5 -67.5t63.5 -182.5q0 -114 -82 -180t-200 -66q-150 0 -241 121t-91 334q0 300 177 475t450 258zM971 3080l20 -78q-459 -147 -459 -532q0 -73 25 -143q77 61 168 61q104 0 168.5 -68
t64.5 -182q0 -103 -77 -174.5t-205 -71.5q-160 0 -246 130.5t-86 324.5q0 542 627 733z" />
    <glyph glyph-name="quotedblright" unicode="&#x201d;" horiz-adv-x="2269" 
d="M365 1892l-21 78q262 79 360.5 231t98.5 302q0 34 -29 143q-67 -61 -164 -61q-119 0 -178 72.5t-59 172.5q0 106 77.5 178t208.5 72q164 0 248 -128t84 -326q0 -356 -208.5 -517.5t-417.5 -216.5zM1298 1892l-20 78q239 64 349 217t110 316q0 61 -29 143
q-67 -61 -164 -61q-118 0 -175.5 73t-57.5 172q0 118 82 184t200 66q151 0 241.5 -120t90.5 -334q0 -356 -210 -518.5t-417 -215.5z" />
    <glyph glyph-name="bullet" unicode="&#x2022;" 
d="M1204 1577q0 75 41 156t119 134.5t184 53.5q143 0 243.5 -98.5t100.5 -245.5q0 -145 -100.5 -244.5t-243.5 -99.5q-155 0 -249.5 111.5t-94.5 232.5z" />
    <glyph glyph-name="quotedblbase" horiz-adv-x="2269" 
d="M365 -733l-21 78q181 54 284 149t139 194.5t36 184.5q0 60 -29 147q-69 -61 -164 -61q-119 0 -178 72.5t-59 173.5q0 112 84.5 181t201.5 69q151 0 241.5 -121t90.5 -334q0 -226 -102 -381t-243 -236t-281 -116zM1298 -733l-20 78q239 64 349 216.5t110 311.5
q0 60 -29 147q-69 -61 -164 -61q-118 0 -175.5 73t-57.5 173q0 126 89 188t193 62q134 0 233 -111.5t99 -343.5q0 -226 -102 -381t-243 -236.5t-282 -115.5z" />
    <glyph glyph-name="ellipsis" horiz-adv-x="3543" 
d="M344 205q0 113 80.5 181.5t165.5 68.5q86 0 166 -68.5t80 -181.5q0 -103 -72.5 -174.5t-173.5 -71.5t-173.5 71.5t-72.5 174.5zM1524 205q0 64 36 122t95 93t119 35q85 0 165 -68.5t80 -181.5q0 -105 -71.5 -175.5t-173.5 -70.5q-101 0 -175.5 73t-74.5 173zM2707 205
q0 113 80.5 181.5t165.5 68.5q86 0 166 -68.5t80 -181.5q0 -103 -72.5 -174.5t-173.5 -71.5t-173.5 71.5t-72.5 174.5z" />
    <glyph glyph-name="trademark" horiz-adv-x="3641" 
d="M209 3039h1159l37 -418h-70q-43 169 -112 230t-195 61h-115v-954q0 -108 34.5 -166.5t170.5 -58.5h33v-70h-725v70h33q136 0 170.5 58.5t34.5 166.5v954h-115q-138 0 -201.5 -65t-105.5 -226h-70zM1552 3039h488l483 -971l483 971h463v-69h-32q-136 0 -170.5 -59
t-34.5 -167v-786q0 -108 34.5 -166.5t170.5 -58.5h32v-70h-688v70h25q113 0 144.5 61t31.5 164v725l-504 -1028h-45l-500 1020v-717q0 -114 35 -169.5t141 -55.5h25v-70h-582v70h33q136 0 170.5 58.5t34.5 166.5v786q0 108 -34.5 167t-170.5 59h-33v69z" />
    <glyph glyph-name="guilsinglleft" horiz-adv-x="1458" 
d="M1221 1962l65 -61l-635 -857l635 -811l-65 -61l-1049 872z" />
    <glyph glyph-name="guilsinglright" horiz-adv-x="1458" 
d="M238 1962l1048 -918l-1048 -872l-66 61l631 811l-631 857z" />
    <glyph glyph-name="quotesinglbase" horiz-adv-x="1335" 
d="M365 -733l-21 78q181 54 284 149t139 194.5t36 184.5q0 60 -29 147q-69 -61 -164 -61q-119 0 -178 72.5t-59 173.5q0 112 84.5 181t201.5 69q151 0 241.5 -121t90.5 -334q0 -226 -102 -381t-243 -236t-281 -116z" />
    <glyph glyph-name="dagger" horiz-adv-x="2376" 
d="M1114 -774v778q0 501 -12.5 752t-53.5 414t-130 309q196 179 196 491h-131q-80 0 -291 -90q-170 -74 -246 -74t-146.5 54t-70.5 172q0 105 59.5 167t157.5 62q53 0 283 -82q172 -61 250 -61h135q0 146 -22 233t-72 189q-94 185 -94 294q0 125 78 185.5t184 60.5
t184 -60.5t78 -185.5q0 -109 -94 -294q-50 -102 -72 -189t-22 -233h135q78 0 250 61q228 82 282 82q98 0 157.5 -61t59.5 -168q0 -112 -69.5 -169t-147.5 -57q-74 0 -250 74q-195 90 -286 90h-131q0 -312 196 -491q-89 -146 -130 -309t-53.5 -414t-12.5 -752v-778h-148z" />
    <glyph glyph-name="daggerdbl" 
d="M1204 1577q0 75 41 156t119 134.5t184 53.5q143 0 243.5 -98.5t100.5 -245.5q0 -145 -100.5 -244.5t-243.5 -99.5q-155 0 -249.5 111.5t-94.5 232.5z" />
    <glyph glyph-name="circumflex" horiz-adv-x="1950" 
d="M344 2310l430 729h402l430 -729h-148l-483 529l-483 -529h-148z" />
    <glyph glyph-name="tilde" horiz-adv-x="1950" 
d="M250 2449h-115q63 185 218 320t347 135q136 0 390 -94q266 -98 393 -98q113 0 180 139q12 15 33 49h114q-199 -459 -512 -459q-159 0 -380 82q-310 111 -443 111q-82 0 -123.5 -43t-101.5 -142z" />
    <glyph glyph-name="breve" horiz-adv-x="1950" 
d="M389 3039h115q16 -185 119.5 -328t347.5 -143q247 0 355 146t120 325h115v-110q0 -124 -52.5 -263.5t-184.5 -241.5t-349 -102t-349 102t-184.5 241.5t-52.5 263.5v110z" />
    <glyph glyph-name="dotaccent" horiz-adv-x="1950" 
d="M942 0h148l-66 -221q66 8 111 8q170 0 291.5 -78.5t121.5 -245.5q0 -198 -180 -289.5t-397 -91.5q-206 0 -398 78l33 90q99 -32 221 -32q369 0 369 200q0 76 -57.5 114t-151.5 38q-29 0 -168 -21z" />
    <glyph glyph-name="ring" horiz-adv-x="1950" 
d="M516 2695q0 190 133 324.5t326 134.5q190 0 324.5 -133t134.5 -326t-134.5 -326t-324.5 -133t-324.5 133t-134.5 326zM659 2695q0 -113 87 -214t229 -101q136 0 225.5 92t89.5 223q0 134 -91 225t-224 91q-143 0 -229.5 -99.5t-86.5 -216.5z" />
    <glyph glyph-name="hungarumlaut" 
d="M1204 1577q0 75 41 156t119 134.5t184 53.5q143 0 243.5 -98.5t100.5 -245.5q0 -145 -100.5 -244.5t-243.5 -99.5q-155 0 -249.5 111.5t-94.5 232.5z" />
    <glyph glyph-name="ogonek" 
d="M1204 1577q0 75 41 156t119 134.5t184 53.5q143 0 243.5 -98.5t100.5 -245.5q0 -145 -100.5 -244.5t-243.5 -99.5q-155 0 -249.5 111.5t-94.5 232.5z" />
    <glyph glyph-name="caron" horiz-adv-x="1950" 
d="M1606 3039l-430 -729h-402l-430 729h148l483 -524l483 524h148z" />
    <glyph glyph-name="dotlessi" horiz-adv-x="1233" 
d="M815 2130v-1729q0 -159 58 -251.5t278 -92.5h53v-57h-1118v57h49q144 0 212 50.5t83.5 119.5t15.5 174v1123q0 311 -163 311q-87 0 -144 -29l-20 54z" />
    <glyph glyph-name="fraction" 
d="M1204 1577q0 75 41 156t119 134.5t184 53.5q143 0 243.5 -98.5t100.5 -245.5q0 -145 -100.5 -244.5t-243.5 -99.5q-155 0 -249.5 111.5t-94.5 232.5z" />
    <glyph glyph-name="florin" 
d="M1204 1577q0 75 41 156t119 134.5t184 53.5q143 0 243.5 -98.5t100.5 -245.5q0 -145 -100.5 -244.5t-243.5 -99.5q-155 0 -249.5 111.5t-94.5 232.5z" />
    <glyph glyph-name="fi" 
d="M1204 1577q0 75 41 156t119 134.5t184 53.5q143 0 243.5 -98.5t100.5 -245.5q0 -145 -100.5 -244.5t-243.5 -99.5q-155 0 -249.5 111.5t-94.5 232.5z" />
    <glyph glyph-name="fl" 
d="M1204 1577q0 75 41 156t119 134.5t184 53.5q143 0 243.5 -98.5t100.5 -245.5q0 -145 -100.5 -244.5t-243.5 -99.5q-155 0 -249.5 111.5t-94.5 232.5z" />
    <glyph glyph-name="perthousand" horiz-adv-x="5411" 
d="M3068 3236l123 -90l-2650 -3396l-123 86l2183 2802q-206 -111 -475 -111q-168 0 -295 78q4 -25 4 -82q0 -240 -122.5 -493.5t-326.5 -418.5t-432 -165q-235 0 -371 97t-187.5 230t-51.5 259q0 232 108 496.5t330.5 449t540.5 184.5q316 0 467 -278q98 -205 360 -205
q520 0 918 557zM1659 2707q-139 73 -139 222q-65 37 -152 37q-182 0 -337 -164t-245 -404.5t-90 -443.5q0 -195 88.5 -263.5t194.5 -68.5q173 0 333.5 143t259.5 366.5t99 440.5q0 67 -12 135zM2462 -82q-187 0 -325 71.5t-212 205t-74 309.5q0 187 63 385t187.5 371.5
t302.5 277.5t398 104q254 0 395 -147.5t141 -437.5q0 -272 -119 -531.5t-322 -427.5t-435 -180zM2486 94q200 0 358 160.5t246 389t88 409.5q0 385 -303 385q-195 0 -348.5 -174t-238 -416.5t-84.5 -421.5q0 -195 88.5 -263.5t193.5 -68.5zM4190 -82q-285 0 -445.5 161.5
t-160.5 424.5q0 302 131 564.5t350 418t465 155.5q254 0 395.5 -147.5t141.5 -437.5q0 -181 -61 -380t-176 -372t-279.5 -280t-360.5 -107zM4215 94q127 0 252 82.5t223.5 220t157.5 310.5t59 346q0 385 -303 385q-195 0 -347.5 -173.5t-236.5 -415t-84 -423.5
q0 -135 67.5 -233.5t211.5 -98.5z" />
    <glyph glyph-name="Lslash" 
d="M1204 1577q0 75 41 156t119 134.5t184 53.5q143 0 243.5 -98.5t100.5 -245.5q0 -145 -100.5 -244.5t-243.5 -99.5q-155 0 -249.5 111.5t-94.5 232.5z" />
    <glyph glyph-name="OE" horiz-adv-x="4469" 
d="M2216 3039h1827l82 -631l-58 -8q-64 273 -191.5 353.5t-340.5 80.5h-840v-1138h783q335 0 335 450h58v-1061h-58q0 426 -335 426h-783v-1306h840q216 0 372.5 58.5t258.5 184t159 326.5l58 -16l-226 -758h-1941v135q-283 -176 -578 -176q-276 0 -528 104t-451.5 306.5
t-314.5 496.5t-115 654q0 461 214 818.5t558.5 549.5t722.5 192q263 0 492 -176v135zM2216 455v2130q-30 105 -112 177t-191 107t-213 35q-213 0 -429.5 -131t-364.5 -439.5t-148 -797.5q0 -371 102 -693t307.5 -515t495.5 -193q253 0 383 112t170 208z" />
    <glyph glyph-name="lslash" 
d="M1204 1577q0 75 41 156t119 134.5t184 53.5q143 0 243.5 -98.5t100.5 -245.5q0 -145 -100.5 -244.5t-243.5 -99.5q-155 0 -249.5 111.5t-94.5 232.5z" />
    <glyph glyph-name="oe" horiz-adv-x="3650" 
d="M3445 811l61 -25q-52 -233 -177.5 -421t-306 -297t-388.5 -109q-247 0 -415 123t-261 287q-334 -410 -799 -410q-260 0 -454.5 97t-319 258t-183.5 349.5t-59 372.5q0 218 74 416t210.5 349t324 236t407.5 85q252 0 463.5 -103t351.5 -307q256 410 709 410
q252 0 424 -119t255 -307t83 -398h-1331q0 -317 92 -545.5t246.5 -343t340.5 -114.5q197 0 379.5 134t272.5 382zM2126 1438h864q0 141 -52.5 260.5t-150.5 189.5t-227 70q-207 0 -313 -161.5t-121 -358.5zM569 1065q0 -216 77 -437t226 -367t349 -146q528 0 528 950
q0 205 -82 414.5t-235.5 348t-354.5 138.5q-190 0 -304 -131t-159 -334t-45 -436z" />
    <glyph glyph-name="Scaron" 
d="M1204 1577q0 75 41 156t119 134.5t184 53.5q143 0 243.5 -98.5t100.5 -245.5q0 -145 -100.5 -244.5t-243.5 -99.5q-155 0 -249.5 111.5t-94.5 232.5z" />
    <glyph glyph-name="Ydieresis" 
d="M1204 1577q0 75 41 156t119 134.5t184 53.5q143 0 243.5 -98.5t100.5 -245.5q0 -145 -100.5 -244.5t-243.5 -99.5q-155 0 -249.5 111.5t-94.5 232.5z" />
    <glyph glyph-name="Zcaron" 
d="M1204 1577q0 75 41 156t119 134.5t184 53.5q143 0 243.5 -98.5t100.5 -245.5q0 -145 -100.5 -244.5t-243.5 -99.5q-155 0 -249.5 111.5t-94.5 232.5z" />
    <glyph glyph-name="scaron" 
d="M1204 1577q0 75 41 156t119 134.5t184 53.5q143 0 243.5 -98.5t100.5 -245.5q0 -145 -100.5 -244.5t-243.5 -99.5q-155 0 -249.5 111.5t-94.5 232.5z" />
    <glyph glyph-name="zcaron" 
d="M1204 1577q0 75 41 156t119 134.5t184 53.5q143 0 243.5 -98.5t100.5 -245.5q0 -145 -100.5 -244.5t-243.5 -99.5q-155 0 -249.5 111.5t-94.5 232.5z" />
  </font>
</defs>
</svg>
